G75*
%MOIN*%
%OFA0B0*%
%FSLAX25Y25*%
%IPPOS*%
%LPD*%
%AMOC8*
5,1,8,0,0,1.08239X$1,22.5*
%
%ADD10C,0.06500*%
%ADD11C,0.06600*%
%ADD12C,0.07874*%
%ADD13R,0.07400X0.07400*%
%ADD14C,0.07400*%
%ADD15OC8,0.05200*%
%ADD16C,0.04362*%
%ADD17C,0.05000*%
%ADD18C,0.11811*%
%ADD19C,0.08500*%
%ADD20R,0.05937X0.05937*%
%ADD21C,0.01600*%
%ADD22R,0.03962X0.03962*%
D10*
X0176800Y0161957D03*
X0176800Y0181643D03*
X0146800Y0171957D03*
X0146800Y0191643D03*
X0116800Y0186957D03*
X0116800Y0206643D03*
X0036643Y0271800D03*
X0016957Y0271800D03*
X0016957Y0291800D03*
X0036643Y0291800D03*
X0236957Y0272800D03*
X0256643Y0272800D03*
X0266957Y0261800D03*
X0286643Y0261800D03*
D11*
X0056800Y0251800D03*
X0056800Y0236800D03*
X0016800Y0236800D03*
X0016800Y0251800D03*
D12*
X0340969Y0263520D02*
X0340969Y0271394D01*
X0348843Y0287143D02*
X0356717Y0287143D01*
X0365772Y0271394D02*
X0365772Y0263520D01*
D13*
X0246800Y0291800D03*
X0201800Y0291800D03*
X0110816Y0142824D03*
D14*
X0120816Y0142824D03*
X0130816Y0142824D03*
X0140816Y0142824D03*
X0150816Y0142824D03*
X0160816Y0142824D03*
X0170816Y0142824D03*
X0180816Y0142824D03*
X0190816Y0142824D03*
X0200816Y0142824D03*
X0210816Y0142824D03*
X0220816Y0142824D03*
X0230816Y0142824D03*
X0240816Y0142824D03*
X0250816Y0142824D03*
X0260816Y0142824D03*
X0261800Y0161800D03*
X0251800Y0161800D03*
X0241800Y0161800D03*
X0231800Y0161800D03*
X0221800Y0161800D03*
X0211800Y0161800D03*
X0201800Y0161800D03*
X0271800Y0161800D03*
X0281800Y0161800D03*
X0291800Y0161800D03*
X0301800Y0161800D03*
X0311800Y0161800D03*
X0311800Y0221800D03*
X0301800Y0221800D03*
X0291800Y0221800D03*
X0281800Y0221800D03*
X0271800Y0221800D03*
X0261800Y0221800D03*
X0251800Y0221800D03*
X0241800Y0221800D03*
X0231800Y0221800D03*
X0221800Y0221800D03*
X0211800Y0221800D03*
X0201800Y0221800D03*
X0191800Y0291800D03*
X0181800Y0291800D03*
X0226800Y0291800D03*
X0236800Y0291800D03*
X0306800Y0246800D03*
X0316800Y0246800D03*
X0311800Y0239300D03*
X0056800Y0034300D03*
X0051800Y0026800D03*
X0061800Y0026800D03*
D15*
X0091800Y0216800D03*
X0091800Y0246800D03*
X0106800Y0281800D03*
X0114300Y0286800D03*
X0106800Y0291800D03*
X0141800Y0291800D03*
X0149300Y0286800D03*
X0141800Y0281800D03*
X0146800Y0256800D03*
X0146800Y0226800D03*
X0185300Y0228300D03*
X0192800Y0233300D03*
X0185300Y0238300D03*
X0185300Y0251800D03*
X0192800Y0256800D03*
X0185300Y0261800D03*
X0366800Y0236800D03*
X0376800Y0226800D03*
X0386800Y0236800D03*
D16*
X0356800Y0236800D03*
X0346800Y0226800D03*
X0336800Y0236800D03*
D17*
X0356957Y0211800D03*
X0376643Y0211800D03*
X0286643Y0246800D03*
X0266957Y0246800D03*
X0236143Y0251800D03*
X0221643Y0242800D03*
X0216457Y0251800D03*
X0221643Y0261800D03*
X0201957Y0261800D03*
X0201957Y0242800D03*
X0211957Y0233300D03*
X0231643Y0233300D03*
X0186800Y0181643D03*
X0186800Y0161957D03*
X0156800Y0171957D03*
X0156800Y0191643D03*
X0126800Y0186957D03*
X0126800Y0206643D03*
X0101643Y0196800D03*
X0101643Y0186800D03*
X0101643Y0176800D03*
X0081957Y0176800D03*
X0081957Y0186800D03*
X0081957Y0196800D03*
X0091800Y0271957D03*
X0091800Y0291643D03*
X0126800Y0291643D03*
X0126800Y0271957D03*
X0161800Y0271957D03*
X0161800Y0291643D03*
D18*
X0283700Y0296800D03*
X0301800Y0296800D03*
X0343700Y0181800D03*
X0361800Y0181800D03*
D19*
X0066406Y0171957D03*
X0066406Y0191643D03*
X0017194Y0191643D03*
X0017194Y0171957D03*
X0017194Y0136643D03*
X0017194Y0116957D03*
X0017194Y0081643D03*
X0017194Y0061957D03*
X0066406Y0061957D03*
X0066406Y0081643D03*
X0066406Y0116957D03*
X0066406Y0136643D03*
D20*
X0054300Y0274300D03*
X0054300Y0284300D03*
X0054300Y0294300D03*
D21*
X0027143Y0012516D02*
X0026614Y0011600D01*
X0084433Y0011600D01*
X0082831Y0012525D01*
X0080911Y0014445D01*
X0079553Y0016796D01*
X0078850Y0019419D01*
X0078850Y0022134D01*
X0079553Y0024757D01*
X0080911Y0027108D01*
X0082831Y0029028D01*
X0085182Y0030385D01*
X0087805Y0031088D01*
X0090520Y0031088D01*
X0093142Y0030385D01*
X0095494Y0029028D01*
X0097414Y0027108D01*
X0098771Y0024757D01*
X0099474Y0022134D01*
X0099474Y0019419D01*
X0098771Y0016796D01*
X0097414Y0014445D01*
X0095494Y0012525D01*
X0093892Y0011600D01*
X0356986Y0011600D01*
X0356457Y0012516D01*
X0355701Y0015339D01*
X0355701Y0018261D01*
X0356457Y0021084D01*
X0357918Y0023615D01*
X0359985Y0025682D01*
X0362516Y0027143D01*
X0365339Y0027899D01*
X0368261Y0027899D01*
X0371084Y0027143D01*
X0373615Y0025682D01*
X0374768Y0024529D01*
X0374829Y0024757D01*
X0376186Y0027108D01*
X0378106Y0029028D01*
X0380458Y0030385D01*
X0383080Y0031088D01*
X0385795Y0031088D01*
X0388418Y0030385D01*
X0390769Y0029028D01*
X0392000Y0027797D01*
X0392000Y0135803D01*
X0390769Y0134572D01*
X0388418Y0133215D01*
X0385795Y0132512D01*
X0383080Y0132512D01*
X0380458Y0133215D01*
X0378106Y0134572D01*
X0376186Y0136492D01*
X0374829Y0138843D01*
X0374126Y0141466D01*
X0374126Y0144181D01*
X0374829Y0146804D01*
X0376186Y0149155D01*
X0378106Y0151075D01*
X0380458Y0152433D01*
X0383080Y0153135D01*
X0385795Y0153135D01*
X0388418Y0152433D01*
X0390769Y0151075D01*
X0392000Y0149844D01*
X0392000Y0296986D01*
X0391084Y0296457D01*
X0388261Y0295701D01*
X0385339Y0295701D01*
X0382516Y0296457D01*
X0379985Y0297918D01*
X0377918Y0299985D01*
X0376457Y0302516D01*
X0375701Y0305339D01*
X0375701Y0308261D01*
X0376457Y0311084D01*
X0376986Y0312000D01*
X0026614Y0312000D01*
X0027143Y0311084D01*
X0027899Y0308261D01*
X0027899Y0305339D01*
X0027143Y0302516D01*
X0025682Y0299985D01*
X0023615Y0297918D01*
X0021084Y0296457D01*
X0019663Y0296076D01*
X0020247Y0295652D01*
X0020809Y0295090D01*
X0021277Y0294447D01*
X0021637Y0293739D01*
X0021883Y0292983D01*
X0022007Y0292197D01*
X0022007Y0291800D01*
X0016958Y0291800D01*
X0022007Y0291800D01*
X0022007Y0291403D01*
X0021883Y0290617D01*
X0021637Y0289861D01*
X0021277Y0289153D01*
X0020809Y0288510D01*
X0020247Y0287948D01*
X0019604Y0287481D01*
X0018896Y0287120D01*
X0018140Y0286874D01*
X0017355Y0286750D01*
X0016958Y0286750D01*
X0016958Y0291800D01*
X0016958Y0291800D01*
X0016957Y0291800D01*
X0011907Y0291800D01*
X0011907Y0291403D01*
X0012032Y0290617D01*
X0012277Y0289861D01*
X0012638Y0289153D01*
X0013106Y0288510D01*
X0013668Y0287948D01*
X0014311Y0287481D01*
X0015019Y0287120D01*
X0015775Y0286874D01*
X0016560Y0286750D01*
X0016957Y0286750D01*
X0016957Y0291800D01*
X0016957Y0291800D01*
X0011907Y0291800D01*
X0011907Y0292197D01*
X0012032Y0292983D01*
X0012277Y0293739D01*
X0012638Y0294447D01*
X0013106Y0295090D01*
X0013668Y0295652D01*
X0014167Y0296015D01*
X0012516Y0296457D01*
X0011600Y0296986D01*
X0011600Y0193947D01*
X0012065Y0195070D01*
X0013767Y0196771D01*
X0015990Y0197693D01*
X0018397Y0197693D01*
X0020621Y0196771D01*
X0022323Y0195070D01*
X0023244Y0192846D01*
X0023244Y0190439D01*
X0022323Y0188215D01*
X0020621Y0186514D01*
X0018397Y0185593D01*
X0015990Y0185593D01*
X0013767Y0186514D01*
X0012065Y0188215D01*
X0011600Y0189338D01*
X0011600Y0174262D01*
X0012065Y0175385D01*
X0013767Y0177086D01*
X0015990Y0178007D01*
X0018397Y0178007D01*
X0020621Y0177086D01*
X0022323Y0175385D01*
X0023244Y0173161D01*
X0023244Y0170754D01*
X0022323Y0168530D01*
X0020621Y0166829D01*
X0018397Y0165907D01*
X0015990Y0165907D01*
X0013767Y0166829D01*
X0012065Y0168530D01*
X0011600Y0169652D01*
X0011600Y0138947D01*
X0012065Y0140070D01*
X0013767Y0141771D01*
X0015990Y0142693D01*
X0018397Y0142693D01*
X0020621Y0141771D01*
X0022323Y0140070D01*
X0023244Y0137846D01*
X0023244Y0135439D01*
X0022323Y0133215D01*
X0020621Y0131514D01*
X0018397Y0130593D01*
X0015990Y0130593D01*
X0013767Y0131514D01*
X0012065Y0133215D01*
X0011600Y0134338D01*
X0011600Y0119262D01*
X0012065Y0120385D01*
X0013767Y0122086D01*
X0015990Y0123007D01*
X0018397Y0123007D01*
X0020621Y0122086D01*
X0022323Y0120385D01*
X0023244Y0118161D01*
X0023244Y0115754D01*
X0022323Y0113530D01*
X0020621Y0111829D01*
X0018397Y0110907D01*
X0015990Y0110907D01*
X0013767Y0111829D01*
X0012065Y0113530D01*
X0011600Y0114652D01*
X0011600Y0083947D01*
X0012065Y0085070D01*
X0013767Y0086771D01*
X0015990Y0087693D01*
X0018397Y0087693D01*
X0020621Y0086771D01*
X0022323Y0085070D01*
X0023244Y0082846D01*
X0023244Y0080439D01*
X0022323Y0078215D01*
X0020621Y0076514D01*
X0018397Y0075593D01*
X0015990Y0075593D01*
X0013767Y0076514D01*
X0012065Y0078215D01*
X0011600Y0079338D01*
X0011600Y0064262D01*
X0012065Y0065385D01*
X0013767Y0067086D01*
X0015990Y0068007D01*
X0018397Y0068007D01*
X0020621Y0067086D01*
X0022323Y0065385D01*
X0023244Y0063161D01*
X0023244Y0060754D01*
X0022323Y0058530D01*
X0020621Y0056829D01*
X0018397Y0055907D01*
X0015990Y0055907D01*
X0013767Y0056829D01*
X0012065Y0058530D01*
X0011600Y0059652D01*
X0011600Y0026614D01*
X0012516Y0027143D01*
X0015339Y0027899D01*
X0018261Y0027899D01*
X0021084Y0027143D01*
X0023615Y0025682D01*
X0025682Y0023615D01*
X0027143Y0021084D01*
X0027899Y0018261D01*
X0027899Y0015339D01*
X0027143Y0012516D01*
X0027325Y0013194D02*
X0082161Y0013194D01*
X0080710Y0014793D02*
X0027753Y0014793D01*
X0027899Y0016391D02*
X0079787Y0016391D01*
X0079233Y0017990D02*
X0027899Y0017990D01*
X0027544Y0019588D02*
X0078850Y0019588D01*
X0078850Y0021187D02*
X0027084Y0021187D01*
X0026161Y0022785D02*
X0048037Y0022785D01*
X0048684Y0022137D02*
X0047137Y0023684D01*
X0046300Y0025706D01*
X0046300Y0027894D01*
X0047137Y0029915D01*
X0048684Y0031463D01*
X0050706Y0032300D01*
X0051675Y0032300D01*
X0051300Y0033206D01*
X0051300Y0035394D01*
X0052137Y0037415D01*
X0053684Y0038963D01*
X0055706Y0039800D01*
X0057894Y0039800D01*
X0058410Y0039586D01*
X0147827Y0129004D01*
X0148783Y0129400D01*
X0260723Y0129400D01*
X0269200Y0137877D01*
X0269200Y0145723D01*
X0265723Y0149200D01*
X0251283Y0149200D01*
X0250327Y0149596D01*
X0249596Y0150327D01*
X0243410Y0156514D01*
X0242894Y0156300D01*
X0240706Y0156300D01*
X0238684Y0157137D01*
X0237137Y0158684D01*
X0236800Y0159499D01*
X0236463Y0158684D01*
X0234915Y0157137D01*
X0232894Y0156300D01*
X0230706Y0156300D01*
X0228684Y0157137D01*
X0227137Y0158684D01*
X0226800Y0159499D01*
X0226463Y0158684D01*
X0224915Y0157137D01*
X0222894Y0156300D01*
X0220706Y0156300D01*
X0218684Y0157137D01*
X0217137Y0158684D01*
X0216800Y0159499D01*
X0216463Y0158684D01*
X0214915Y0157137D01*
X0212894Y0156300D01*
X0210706Y0156300D01*
X0208684Y0157137D01*
X0207137Y0158684D01*
X0206800Y0159499D01*
X0206463Y0158684D01*
X0204915Y0157137D01*
X0202894Y0156300D01*
X0200706Y0156300D01*
X0198684Y0157137D01*
X0197137Y0158684D01*
X0196300Y0160706D01*
X0196300Y0162894D01*
X0197137Y0164915D01*
X0198684Y0166463D01*
X0200706Y0167300D01*
X0202894Y0167300D01*
X0204915Y0166463D01*
X0206463Y0164915D01*
X0206800Y0164101D01*
X0207137Y0164915D01*
X0208684Y0166463D01*
X0210706Y0167300D01*
X0212894Y0167300D01*
X0214915Y0166463D01*
X0216463Y0164915D01*
X0216800Y0164101D01*
X0217137Y0164915D01*
X0218684Y0166463D01*
X0220706Y0167300D01*
X0222894Y0167300D01*
X0224915Y0166463D01*
X0226463Y0164915D01*
X0226800Y0164101D01*
X0227137Y0164915D01*
X0228684Y0166463D01*
X0230706Y0167300D01*
X0232894Y0167300D01*
X0234915Y0166463D01*
X0236463Y0164915D01*
X0236800Y0164101D01*
X0237137Y0164915D01*
X0238684Y0166463D01*
X0240706Y0167300D01*
X0242894Y0167300D01*
X0244915Y0166463D01*
X0246463Y0164915D01*
X0246800Y0164101D01*
X0247137Y0164915D01*
X0248684Y0166463D01*
X0250706Y0167300D01*
X0252894Y0167300D01*
X0254915Y0166463D01*
X0256463Y0164915D01*
X0256800Y0164101D01*
X0257137Y0164915D01*
X0258572Y0166351D01*
X0235723Y0189200D01*
X0185581Y0189200D01*
X0185581Y0189073D01*
X0184527Y0188019D01*
X0179073Y0188019D01*
X0178019Y0189073D01*
X0178019Y0194342D01*
X0169400Y0185723D01*
X0169400Y0171283D01*
X0169004Y0170327D01*
X0168273Y0169596D01*
X0153416Y0154739D01*
X0153416Y0147700D01*
X0153931Y0147486D01*
X0155478Y0145939D01*
X0155816Y0145125D01*
X0156153Y0145939D01*
X0157700Y0147486D01*
X0159722Y0148324D01*
X0161910Y0148324D01*
X0163931Y0147486D01*
X0165478Y0145939D01*
X0165816Y0145125D01*
X0166153Y0145939D01*
X0167700Y0147486D01*
X0169722Y0148324D01*
X0171910Y0148324D01*
X0173931Y0147486D01*
X0175478Y0145939D01*
X0175816Y0145125D01*
X0176153Y0145939D01*
X0177700Y0147486D01*
X0179722Y0148324D01*
X0181910Y0148324D01*
X0183931Y0147486D01*
X0185478Y0145939D01*
X0185816Y0145125D01*
X0186153Y0145939D01*
X0187700Y0147486D01*
X0189722Y0148324D01*
X0191910Y0148324D01*
X0193931Y0147486D01*
X0195478Y0145939D01*
X0195816Y0145125D01*
X0196153Y0145939D01*
X0197700Y0147486D01*
X0199722Y0148324D01*
X0201910Y0148324D01*
X0203931Y0147486D01*
X0205478Y0145939D01*
X0205816Y0145125D01*
X0206153Y0145939D01*
X0207700Y0147486D01*
X0209722Y0148324D01*
X0211910Y0148324D01*
X0213931Y0147486D01*
X0215478Y0145939D01*
X0215816Y0145125D01*
X0216153Y0145939D01*
X0217700Y0147486D01*
X0219722Y0148324D01*
X0221910Y0148324D01*
X0223931Y0147486D01*
X0225478Y0145939D01*
X0225816Y0145125D01*
X0226153Y0145939D01*
X0227700Y0147486D01*
X0229722Y0148324D01*
X0231910Y0148324D01*
X0233931Y0147486D01*
X0235478Y0145939D01*
X0235816Y0145125D01*
X0236153Y0145939D01*
X0237700Y0147486D01*
X0239722Y0148324D01*
X0241910Y0148324D01*
X0243931Y0147486D01*
X0245478Y0145939D01*
X0245816Y0145125D01*
X0246153Y0145939D01*
X0247700Y0147486D01*
X0249722Y0148324D01*
X0251910Y0148324D01*
X0253931Y0147486D01*
X0255478Y0145939D01*
X0255816Y0145125D01*
X0256153Y0145939D01*
X0257700Y0147486D01*
X0259722Y0148324D01*
X0261910Y0148324D01*
X0263931Y0147486D01*
X0265478Y0145939D01*
X0266316Y0143918D01*
X0266316Y0141730D01*
X0265478Y0139708D01*
X0263931Y0138161D01*
X0261910Y0137324D01*
X0259722Y0137324D01*
X0257700Y0138161D01*
X0256153Y0139708D01*
X0255816Y0140523D01*
X0255478Y0139708D01*
X0253931Y0138161D01*
X0251910Y0137324D01*
X0249722Y0137324D01*
X0247700Y0138161D01*
X0246153Y0139708D01*
X0245816Y0140523D01*
X0245478Y0139708D01*
X0243931Y0138161D01*
X0241910Y0137324D01*
X0239722Y0137324D01*
X0237700Y0138161D01*
X0236153Y0139708D01*
X0235816Y0140523D01*
X0235478Y0139708D01*
X0233931Y0138161D01*
X0231910Y0137324D01*
X0229722Y0137324D01*
X0227700Y0138161D01*
X0226153Y0139708D01*
X0225816Y0140523D01*
X0225478Y0139708D01*
X0223931Y0138161D01*
X0221910Y0137324D01*
X0219722Y0137324D01*
X0217700Y0138161D01*
X0216153Y0139708D01*
X0215816Y0140523D01*
X0215478Y0139708D01*
X0213931Y0138161D01*
X0211910Y0137324D01*
X0209722Y0137324D01*
X0207700Y0138161D01*
X0206153Y0139708D01*
X0205816Y0140523D01*
X0205478Y0139708D01*
X0203931Y0138161D01*
X0201910Y0137324D01*
X0199722Y0137324D01*
X0197700Y0138161D01*
X0196153Y0139708D01*
X0195816Y0140523D01*
X0195478Y0139708D01*
X0193931Y0138161D01*
X0191910Y0137324D01*
X0189722Y0137324D01*
X0187700Y0138161D01*
X0186153Y0139708D01*
X0185816Y0140523D01*
X0185478Y0139708D01*
X0183931Y0138161D01*
X0181910Y0137324D01*
X0179722Y0137324D01*
X0177700Y0138161D01*
X0176153Y0139708D01*
X0175816Y0140523D01*
X0175478Y0139708D01*
X0173931Y0138161D01*
X0171910Y0137324D01*
X0169722Y0137324D01*
X0167700Y0138161D01*
X0166153Y0139708D01*
X0165816Y0140523D01*
X0165478Y0139708D01*
X0163931Y0138161D01*
X0161910Y0137324D01*
X0159722Y0137324D01*
X0157700Y0138161D01*
X0156153Y0139708D01*
X0155816Y0140523D01*
X0155478Y0139708D01*
X0153931Y0138161D01*
X0151910Y0137324D01*
X0149722Y0137324D01*
X0147700Y0138161D01*
X0146153Y0139708D01*
X0145816Y0140523D01*
X0145478Y0139708D01*
X0143931Y0138161D01*
X0141910Y0137324D01*
X0139722Y0137324D01*
X0137700Y0138161D01*
X0136153Y0139708D01*
X0135816Y0140523D01*
X0135478Y0139708D01*
X0133931Y0138161D01*
X0131910Y0137324D01*
X0129722Y0137324D01*
X0127700Y0138161D01*
X0126153Y0139708D01*
X0125816Y0140523D01*
X0125478Y0139708D01*
X0123931Y0138161D01*
X0121910Y0137324D01*
X0119722Y0137324D01*
X0117700Y0138161D01*
X0116316Y0139545D01*
X0116316Y0138887D01*
X0116193Y0138429D01*
X0115956Y0138018D01*
X0115621Y0137683D01*
X0115211Y0137446D01*
X0114753Y0137324D01*
X0111016Y0137324D01*
X0111016Y0142624D01*
X0110616Y0142624D01*
X0105316Y0142624D01*
X0105316Y0138887D01*
X0105438Y0138429D01*
X0105675Y0138018D01*
X0106011Y0137683D01*
X0106421Y0137446D01*
X0106879Y0137324D01*
X0110616Y0137324D01*
X0110616Y0142624D01*
X0110616Y0143024D01*
X0110616Y0148324D01*
X0106879Y0148324D01*
X0106421Y0148201D01*
X0106011Y0147964D01*
X0105675Y0147629D01*
X0105438Y0147218D01*
X0105316Y0146761D01*
X0105316Y0143024D01*
X0110616Y0143024D01*
X0111016Y0143024D01*
X0111016Y0148324D01*
X0114753Y0148324D01*
X0115211Y0148201D01*
X0115621Y0147964D01*
X0115956Y0147629D01*
X0116193Y0147218D01*
X0116316Y0146761D01*
X0116316Y0146102D01*
X0117700Y0147486D01*
X0119722Y0148324D01*
X0121910Y0148324D01*
X0123931Y0147486D01*
X0125478Y0145939D01*
X0125816Y0145125D01*
X0126153Y0145939D01*
X0127700Y0147486D01*
X0129722Y0148324D01*
X0131910Y0148324D01*
X0133931Y0147486D01*
X0135478Y0145939D01*
X0135816Y0145125D01*
X0136153Y0145939D01*
X0137700Y0147486D01*
X0138216Y0147700D01*
X0138216Y0176333D01*
X0138612Y0177289D01*
X0144596Y0183273D01*
X0145327Y0184004D01*
X0146283Y0184400D01*
X0155723Y0184400D01*
X0179200Y0207877D01*
X0179200Y0212317D01*
X0179596Y0213273D01*
X0196596Y0230273D01*
X0197327Y0231004D01*
X0198283Y0231400D01*
X0205317Y0231400D01*
X0206273Y0231004D01*
X0210190Y0227086D01*
X0210706Y0227300D01*
X0212894Y0227300D01*
X0214915Y0226463D01*
X0216463Y0224915D01*
X0216800Y0224101D01*
X0217137Y0224915D01*
X0218684Y0226463D01*
X0220706Y0227300D01*
X0222894Y0227300D01*
X0224915Y0226463D01*
X0226463Y0224915D01*
X0226800Y0224101D01*
X0227137Y0224915D01*
X0228684Y0226463D01*
X0230706Y0227300D01*
X0232894Y0227300D01*
X0234915Y0226463D01*
X0236463Y0224915D01*
X0236800Y0224101D01*
X0237137Y0224915D01*
X0238684Y0226463D01*
X0240706Y0227300D01*
X0242894Y0227300D01*
X0244915Y0226463D01*
X0246463Y0224915D01*
X0246800Y0224101D01*
X0247137Y0224915D01*
X0248684Y0226463D01*
X0250706Y0227300D01*
X0252623Y0227300D01*
X0250723Y0229200D01*
X0243283Y0229200D01*
X0242327Y0229596D01*
X0220757Y0251166D01*
X0220757Y0250945D01*
X0220103Y0249364D01*
X0218893Y0248155D01*
X0217313Y0247500D01*
X0215602Y0247500D01*
X0214022Y0248155D01*
X0212812Y0249364D01*
X0212157Y0250945D01*
X0212157Y0252655D01*
X0212812Y0254236D01*
X0214022Y0255445D01*
X0215602Y0256100D01*
X0215823Y0256100D01*
X0197723Y0274200D01*
X0196283Y0274200D01*
X0195327Y0274596D01*
X0183410Y0286514D01*
X0182894Y0286300D01*
X0180706Y0286300D01*
X0178684Y0287137D01*
X0177137Y0288684D01*
X0176924Y0289200D01*
X0165439Y0289200D01*
X0164236Y0287997D01*
X0162655Y0287343D01*
X0160945Y0287343D01*
X0159364Y0287997D01*
X0158155Y0289207D01*
X0157500Y0290787D01*
X0157500Y0292498D01*
X0158155Y0294078D01*
X0159364Y0295288D01*
X0160945Y0295943D01*
X0162655Y0295943D01*
X0164236Y0295288D01*
X0165124Y0294400D01*
X0176924Y0294400D01*
X0177137Y0294915D01*
X0178684Y0296463D01*
X0180706Y0297300D01*
X0182894Y0297300D01*
X0184915Y0296463D01*
X0186463Y0294915D01*
X0186800Y0294101D01*
X0187137Y0294915D01*
X0188684Y0296463D01*
X0190706Y0297300D01*
X0192894Y0297300D01*
X0194915Y0296463D01*
X0196300Y0295078D01*
X0196300Y0295737D01*
X0196423Y0296195D01*
X0196660Y0296605D01*
X0196995Y0296940D01*
X0197405Y0297177D01*
X0197863Y0297300D01*
X0201600Y0297300D01*
X0201600Y0292000D01*
X0202000Y0292000D01*
X0202000Y0297300D01*
X0205737Y0297300D01*
X0206195Y0297177D01*
X0206605Y0296940D01*
X0206940Y0296605D01*
X0207177Y0296195D01*
X0207300Y0295737D01*
X0207300Y0292000D01*
X0202000Y0292000D01*
X0202000Y0291600D01*
X0207300Y0291600D01*
X0207300Y0287863D01*
X0207177Y0287405D01*
X0206940Y0286995D01*
X0206605Y0286660D01*
X0206195Y0286423D01*
X0205737Y0286300D01*
X0202000Y0286300D01*
X0202000Y0291600D01*
X0201600Y0291600D01*
X0201600Y0286300D01*
X0197863Y0286300D01*
X0197405Y0286423D01*
X0196995Y0286660D01*
X0196660Y0286995D01*
X0196423Y0287405D01*
X0196300Y0287863D01*
X0196300Y0288522D01*
X0194915Y0287137D01*
X0192894Y0286300D01*
X0190977Y0286300D01*
X0197877Y0279400D01*
X0199317Y0279400D01*
X0200273Y0279004D01*
X0201004Y0278273D01*
X0217343Y0261934D01*
X0217343Y0262138D01*
X0217448Y0262807D01*
X0217658Y0263451D01*
X0217965Y0264054D01*
X0218363Y0264601D01*
X0218841Y0265080D01*
X0219389Y0265478D01*
X0219992Y0265785D01*
X0220636Y0265994D01*
X0221304Y0266100D01*
X0221642Y0266100D01*
X0221642Y0261800D01*
X0221643Y0261800D01*
X0225943Y0261800D01*
X0225943Y0262138D01*
X0225837Y0262807D01*
X0225627Y0263451D01*
X0225320Y0264054D01*
X0224922Y0264601D01*
X0224444Y0265080D01*
X0223896Y0265478D01*
X0223293Y0265785D01*
X0222649Y0265994D01*
X0221981Y0266100D01*
X0221643Y0266100D01*
X0221643Y0261800D01*
X0221643Y0261800D01*
X0225943Y0261800D01*
X0225943Y0261462D01*
X0225837Y0260793D01*
X0225627Y0260149D01*
X0225320Y0259546D01*
X0224922Y0258999D01*
X0224444Y0258520D01*
X0223896Y0258122D01*
X0223293Y0257815D01*
X0222649Y0257606D01*
X0221981Y0257500D01*
X0221777Y0257500D01*
X0244877Y0234400D01*
X0252317Y0234400D01*
X0253273Y0234004D01*
X0254004Y0233273D01*
X0260190Y0227086D01*
X0260706Y0227300D01*
X0262894Y0227300D01*
X0264915Y0226463D01*
X0266463Y0224915D01*
X0266800Y0224101D01*
X0267137Y0224915D01*
X0268684Y0226463D01*
X0269200Y0226676D01*
X0269200Y0230723D01*
X0265723Y0234200D01*
X0261283Y0234200D01*
X0260327Y0234596D01*
X0225327Y0269596D01*
X0224596Y0270327D01*
X0224200Y0271283D01*
X0224200Y0286924D01*
X0223684Y0287137D01*
X0222137Y0288684D01*
X0221300Y0290706D01*
X0221300Y0292894D01*
X0222137Y0294915D01*
X0223684Y0296463D01*
X0225706Y0297300D01*
X0227894Y0297300D01*
X0229915Y0296463D01*
X0231463Y0294915D01*
X0231800Y0294101D01*
X0232137Y0294915D01*
X0233684Y0296463D01*
X0235706Y0297300D01*
X0237894Y0297300D01*
X0239915Y0296463D01*
X0241300Y0295078D01*
X0241300Y0295737D01*
X0241423Y0296195D01*
X0241660Y0296605D01*
X0241995Y0296940D01*
X0242405Y0297177D01*
X0242863Y0297300D01*
X0246600Y0297300D01*
X0246600Y0292000D01*
X0247000Y0292000D01*
X0247000Y0297300D01*
X0250737Y0297300D01*
X0251195Y0297177D01*
X0251605Y0296940D01*
X0251940Y0296605D01*
X0252177Y0296195D01*
X0252300Y0295737D01*
X0252300Y0292000D01*
X0247000Y0292000D01*
X0247000Y0291600D01*
X0252300Y0291600D01*
X0252300Y0287863D01*
X0252177Y0287405D01*
X0251940Y0286995D01*
X0251605Y0286660D01*
X0251195Y0286423D01*
X0250737Y0286300D01*
X0247000Y0286300D01*
X0247000Y0291600D01*
X0246600Y0291600D01*
X0246600Y0286300D01*
X0242863Y0286300D01*
X0242405Y0286423D01*
X0241995Y0286660D01*
X0241660Y0286995D01*
X0241423Y0287405D01*
X0241300Y0287863D01*
X0241300Y0288522D01*
X0239915Y0287137D01*
X0237894Y0286300D01*
X0235706Y0286300D01*
X0233684Y0287137D01*
X0232137Y0288684D01*
X0231800Y0289499D01*
X0231463Y0288684D01*
X0229915Y0287137D01*
X0229400Y0286924D01*
X0229400Y0272877D01*
X0262877Y0239400D01*
X0264357Y0239400D01*
X0264357Y0243319D01*
X0263312Y0244364D01*
X0262657Y0245945D01*
X0262657Y0247655D01*
X0263312Y0249236D01*
X0264522Y0250445D01*
X0266102Y0251100D01*
X0267813Y0251100D01*
X0269393Y0250445D01*
X0270603Y0249236D01*
X0271257Y0247655D01*
X0271257Y0245945D01*
X0270603Y0244364D01*
X0269557Y0243319D01*
X0269557Y0237719D01*
X0273273Y0234004D01*
X0274004Y0233273D01*
X0274400Y0232317D01*
X0274400Y0226676D01*
X0274915Y0226463D01*
X0276463Y0224915D01*
X0276800Y0224101D01*
X0277137Y0224915D01*
X0278684Y0226463D01*
X0280706Y0227300D01*
X0282894Y0227300D01*
X0284915Y0226463D01*
X0286463Y0224915D01*
X0286800Y0224101D01*
X0287137Y0224915D01*
X0288684Y0226463D01*
X0290706Y0227300D01*
X0292894Y0227300D01*
X0294915Y0226463D01*
X0296463Y0224915D01*
X0296800Y0224101D01*
X0297137Y0224915D01*
X0298684Y0226463D01*
X0300706Y0227300D01*
X0302894Y0227300D01*
X0304915Y0226463D01*
X0306463Y0224915D01*
X0306800Y0224101D01*
X0307137Y0224915D01*
X0308684Y0226463D01*
X0310706Y0227300D01*
X0312894Y0227300D01*
X0314915Y0226463D01*
X0316463Y0224915D01*
X0317300Y0222894D01*
X0317300Y0220706D01*
X0316463Y0218684D01*
X0314915Y0217137D01*
X0312894Y0216300D01*
X0310706Y0216300D01*
X0308684Y0217137D01*
X0307137Y0218684D01*
X0306800Y0219499D01*
X0306463Y0218684D01*
X0304915Y0217137D01*
X0302894Y0216300D01*
X0300706Y0216300D01*
X0298684Y0217137D01*
X0297137Y0218684D01*
X0296800Y0219499D01*
X0296463Y0218684D01*
X0294915Y0217137D01*
X0292894Y0216300D01*
X0290706Y0216300D01*
X0288684Y0217137D01*
X0287137Y0218684D01*
X0286800Y0219499D01*
X0286463Y0218684D01*
X0284915Y0217137D01*
X0282894Y0216300D01*
X0280706Y0216300D01*
X0278684Y0217137D01*
X0277137Y0218684D01*
X0276800Y0219499D01*
X0276463Y0218684D01*
X0274915Y0217137D01*
X0272894Y0216300D01*
X0270706Y0216300D01*
X0268684Y0217137D01*
X0267137Y0218684D01*
X0266800Y0219499D01*
X0266463Y0218684D01*
X0264915Y0217137D01*
X0262894Y0216300D01*
X0260706Y0216300D01*
X0258684Y0217137D01*
X0257137Y0218684D01*
X0256800Y0219499D01*
X0256463Y0218684D01*
X0254915Y0217137D01*
X0252894Y0216300D01*
X0250706Y0216300D01*
X0250190Y0216514D01*
X0244004Y0210327D01*
X0244004Y0210327D01*
X0243273Y0209596D01*
X0242317Y0209200D01*
X0202877Y0209200D01*
X0190581Y0196904D01*
X0190581Y0194400D01*
X0237317Y0194400D01*
X0238273Y0194004D01*
X0239004Y0193273D01*
X0253019Y0179258D01*
X0253019Y0184527D01*
X0254073Y0185581D01*
X0259527Y0185581D01*
X0260581Y0184527D01*
X0260581Y0184400D01*
X0262317Y0184400D01*
X0263273Y0184004D01*
X0273273Y0174004D01*
X0274004Y0173273D01*
X0274400Y0172317D01*
X0274400Y0166676D01*
X0274915Y0166463D01*
X0276463Y0164915D01*
X0276800Y0164101D01*
X0277137Y0164915D01*
X0278684Y0166463D01*
X0280706Y0167300D01*
X0282894Y0167300D01*
X0284915Y0166463D01*
X0286463Y0164915D01*
X0286800Y0164101D01*
X0287137Y0164915D01*
X0288684Y0166463D01*
X0290706Y0167300D01*
X0292894Y0167300D01*
X0294915Y0166463D01*
X0296463Y0164915D01*
X0296800Y0164101D01*
X0297096Y0164683D01*
X0297605Y0165383D01*
X0298217Y0165995D01*
X0298917Y0166504D01*
X0299689Y0166897D01*
X0300512Y0167165D01*
X0301367Y0167300D01*
X0301600Y0167300D01*
X0301600Y0162000D01*
X0302000Y0162000D01*
X0302000Y0167300D01*
X0302233Y0167300D01*
X0303088Y0167165D01*
X0303911Y0166897D01*
X0304683Y0166504D01*
X0305383Y0165995D01*
X0305995Y0165383D01*
X0306504Y0164683D01*
X0306800Y0164101D01*
X0307137Y0164915D01*
X0308684Y0166463D01*
X0310706Y0167300D01*
X0312894Y0167300D01*
X0314915Y0166463D01*
X0316463Y0164915D01*
X0317300Y0162894D01*
X0317300Y0160706D01*
X0316463Y0158684D01*
X0314915Y0157137D01*
X0312894Y0156300D01*
X0310706Y0156300D01*
X0308684Y0157137D01*
X0307137Y0158684D01*
X0306800Y0159499D01*
X0306504Y0158917D01*
X0305995Y0158217D01*
X0305383Y0157605D01*
X0304683Y0157096D01*
X0303911Y0156703D01*
X0303088Y0156435D01*
X0302233Y0156300D01*
X0302000Y0156300D01*
X0302000Y0161600D01*
X0301600Y0161600D01*
X0301600Y0156300D01*
X0301367Y0156300D01*
X0300512Y0156435D01*
X0299689Y0156703D01*
X0298917Y0157096D01*
X0298217Y0157605D01*
X0297605Y0158217D01*
X0297096Y0158917D01*
X0296800Y0159499D01*
X0296463Y0158684D01*
X0294915Y0157137D01*
X0292894Y0156300D01*
X0290706Y0156300D01*
X0288684Y0157137D01*
X0287137Y0158684D01*
X0286800Y0159499D01*
X0286463Y0158684D01*
X0284915Y0157137D01*
X0282894Y0156300D01*
X0280706Y0156300D01*
X0278684Y0157137D01*
X0277137Y0158684D01*
X0276800Y0159499D01*
X0276463Y0158684D01*
X0274915Y0157137D01*
X0272894Y0156300D01*
X0270706Y0156300D01*
X0268684Y0157137D01*
X0267137Y0158684D01*
X0266800Y0159499D01*
X0266463Y0158684D01*
X0264915Y0157137D01*
X0262894Y0156300D01*
X0260706Y0156300D01*
X0258684Y0157137D01*
X0257137Y0158684D01*
X0256800Y0159499D01*
X0256463Y0158684D01*
X0254915Y0157137D01*
X0252894Y0156300D01*
X0250977Y0156300D01*
X0252877Y0154400D01*
X0267317Y0154400D01*
X0268273Y0154004D01*
X0273273Y0149004D01*
X0274004Y0148273D01*
X0274400Y0147317D01*
X0274400Y0136283D01*
X0274004Y0135327D01*
X0263273Y0124596D01*
X0262317Y0124200D01*
X0150377Y0124200D01*
X0062086Y0035910D01*
X0062300Y0035394D01*
X0062300Y0033206D01*
X0061925Y0032300D01*
X0062233Y0032300D01*
X0063088Y0032165D01*
X0063911Y0031897D01*
X0064683Y0031504D01*
X0065383Y0030995D01*
X0065995Y0030383D01*
X0066504Y0029683D01*
X0066897Y0028911D01*
X0067165Y0028088D01*
X0067300Y0027233D01*
X0067300Y0026800D01*
X0061800Y0026800D01*
X0061800Y0026800D01*
X0067300Y0026800D01*
X0067300Y0026367D01*
X0067165Y0025512D01*
X0066897Y0024689D01*
X0066504Y0023917D01*
X0065995Y0023217D01*
X0065383Y0022605D01*
X0064683Y0022096D01*
X0063911Y0021703D01*
X0063088Y0021435D01*
X0062233Y0021300D01*
X0061800Y0021300D01*
X0061800Y0026800D01*
X0061800Y0026800D01*
X0061800Y0021300D01*
X0061367Y0021300D01*
X0060512Y0021435D01*
X0059689Y0021703D01*
X0058917Y0022096D01*
X0058217Y0022605D01*
X0057605Y0023217D01*
X0057096Y0023917D01*
X0056800Y0024499D01*
X0056463Y0023684D01*
X0054915Y0022137D01*
X0052894Y0021300D01*
X0050706Y0021300D01*
X0048684Y0022137D01*
X0046848Y0024384D02*
X0024913Y0024384D01*
X0023094Y0025982D02*
X0046300Y0025982D01*
X0046300Y0027581D02*
X0019450Y0027581D01*
X0014150Y0027581D02*
X0011600Y0027581D01*
X0011600Y0029179D02*
X0046832Y0029179D01*
X0048000Y0030778D02*
X0011600Y0030778D01*
X0011600Y0032376D02*
X0051644Y0032376D01*
X0051300Y0033975D02*
X0011600Y0033975D01*
X0011600Y0035573D02*
X0051374Y0035573D01*
X0052036Y0037172D02*
X0011600Y0037172D01*
X0011600Y0038770D02*
X0053492Y0038770D01*
X0056800Y0034300D02*
X0149300Y0126800D01*
X0261800Y0126800D01*
X0271800Y0136800D01*
X0271800Y0146800D01*
X0266800Y0151800D01*
X0251800Y0151800D01*
X0241800Y0161800D01*
X0239140Y0166651D02*
X0234460Y0166651D01*
X0236326Y0165053D02*
X0237274Y0165053D01*
X0237163Y0158659D02*
X0236437Y0158659D01*
X0234729Y0157060D02*
X0238871Y0157060D01*
X0244461Y0155462D02*
X0154138Y0155462D01*
X0153416Y0153863D02*
X0246060Y0153863D01*
X0247659Y0152265D02*
X0153416Y0152265D01*
X0153416Y0150666D02*
X0249257Y0150666D01*
X0247683Y0147469D02*
X0243949Y0147469D01*
X0245507Y0145870D02*
X0246125Y0145870D01*
X0246385Y0139476D02*
X0245247Y0139476D01*
X0243248Y0137878D02*
X0248384Y0137878D01*
X0253248Y0137878D02*
X0258384Y0137878D01*
X0256385Y0139476D02*
X0255247Y0139476D01*
X0255507Y0145870D02*
X0256125Y0145870D01*
X0257683Y0147469D02*
X0253949Y0147469D01*
X0251815Y0155462D02*
X0392000Y0155462D01*
X0392000Y0157060D02*
X0314729Y0157060D01*
X0316437Y0158659D02*
X0392000Y0158659D01*
X0392000Y0160257D02*
X0317114Y0160257D01*
X0317300Y0161856D02*
X0392000Y0161856D01*
X0392000Y0163454D02*
X0317068Y0163454D01*
X0316326Y0165053D02*
X0392000Y0165053D01*
X0392000Y0166651D02*
X0314460Y0166651D01*
X0309140Y0166651D02*
X0304394Y0166651D01*
X0302000Y0166651D02*
X0301600Y0166651D01*
X0301600Y0165053D02*
X0302000Y0165053D01*
X0302000Y0163454D02*
X0301600Y0163454D01*
X0301600Y0160257D02*
X0302000Y0160257D01*
X0302000Y0158659D02*
X0301600Y0158659D01*
X0301600Y0157060D02*
X0302000Y0157060D01*
X0304612Y0157060D02*
X0308871Y0157060D01*
X0307163Y0158659D02*
X0306316Y0158659D01*
X0298988Y0157060D02*
X0294729Y0157060D01*
X0296437Y0158659D02*
X0297284Y0158659D01*
X0297365Y0165053D02*
X0296326Y0165053D01*
X0294460Y0166651D02*
X0299206Y0166651D01*
X0306235Y0165053D02*
X0307274Y0165053D01*
X0289140Y0166651D02*
X0284460Y0166651D01*
X0286326Y0165053D02*
X0287274Y0165053D01*
X0287163Y0158659D02*
X0286437Y0158659D01*
X0284729Y0157060D02*
X0288871Y0157060D01*
X0278871Y0157060D02*
X0274729Y0157060D01*
X0276437Y0158659D02*
X0277163Y0158659D01*
X0271800Y0161800D02*
X0271800Y0171800D01*
X0261800Y0181800D01*
X0256800Y0181800D01*
X0253019Y0181038D02*
X0251239Y0181038D01*
X0249641Y0182636D02*
X0253019Y0182636D01*
X0253019Y0184235D02*
X0248042Y0184235D01*
X0246444Y0185833D02*
X0337030Y0185833D01*
X0337168Y0186165D02*
X0335994Y0183333D01*
X0335994Y0180267D01*
X0337168Y0177435D01*
X0339335Y0175268D01*
X0342167Y0174094D01*
X0345233Y0174094D01*
X0348065Y0175268D01*
X0350232Y0177435D01*
X0351405Y0180267D01*
X0351405Y0183333D01*
X0350232Y0186165D01*
X0348065Y0188332D01*
X0345233Y0189505D01*
X0342167Y0189505D01*
X0339335Y0188332D01*
X0337168Y0186165D01*
X0338435Y0187432D02*
X0244845Y0187432D01*
X0243247Y0189030D02*
X0341020Y0189030D01*
X0346380Y0189030D02*
X0359120Y0189030D01*
X0359318Y0189112D02*
X0358385Y0188726D01*
X0357510Y0188221D01*
X0356709Y0187606D01*
X0355994Y0186891D01*
X0355379Y0186090D01*
X0354874Y0185215D01*
X0354488Y0184282D01*
X0354226Y0183306D01*
X0354133Y0182600D01*
X0361000Y0182600D01*
X0361000Y0189467D01*
X0360293Y0189374D01*
X0359318Y0189112D01*
X0361000Y0189030D02*
X0362600Y0189030D01*
X0362600Y0189467D02*
X0362600Y0182600D01*
X0361000Y0182600D01*
X0361000Y0181000D01*
X0354133Y0181000D01*
X0354226Y0180293D01*
X0354488Y0179318D01*
X0354874Y0178385D01*
X0355379Y0177510D01*
X0355994Y0176709D01*
X0356709Y0175994D01*
X0357510Y0175379D01*
X0358385Y0174874D01*
X0359318Y0174488D01*
X0360293Y0174226D01*
X0361000Y0174133D01*
X0361000Y0181000D01*
X0362600Y0181000D01*
X0362600Y0182600D01*
X0369467Y0182600D01*
X0369374Y0183306D01*
X0369112Y0184282D01*
X0368726Y0185215D01*
X0368221Y0186090D01*
X0367606Y0186891D01*
X0366891Y0187606D01*
X0366090Y0188221D01*
X0365215Y0188726D01*
X0364282Y0189112D01*
X0363306Y0189374D01*
X0362600Y0189467D01*
X0364480Y0189030D02*
X0392000Y0189030D01*
X0392000Y0187432D02*
X0367065Y0187432D01*
X0368369Y0185833D02*
X0392000Y0185833D01*
X0392000Y0184235D02*
X0369125Y0184235D01*
X0369462Y0182636D02*
X0392000Y0182636D01*
X0392000Y0181038D02*
X0362600Y0181038D01*
X0362600Y0181000D02*
X0369467Y0181000D01*
X0369374Y0180293D01*
X0369112Y0179318D01*
X0368726Y0178385D01*
X0368221Y0177510D01*
X0367606Y0176709D01*
X0366891Y0175994D01*
X0366090Y0175379D01*
X0365215Y0174874D01*
X0364282Y0174488D01*
X0363306Y0174226D01*
X0362600Y0174133D01*
X0362600Y0181000D01*
X0362600Y0179439D02*
X0361000Y0179439D01*
X0361000Y0177841D02*
X0362600Y0177841D01*
X0362600Y0176242D02*
X0361000Y0176242D01*
X0361000Y0174644D02*
X0362600Y0174644D01*
X0364659Y0174644D02*
X0392000Y0174644D01*
X0392000Y0176242D02*
X0367139Y0176242D01*
X0368412Y0177841D02*
X0392000Y0177841D01*
X0392000Y0179439D02*
X0369145Y0179439D01*
X0362600Y0182636D02*
X0361000Y0182636D01*
X0361000Y0181038D02*
X0351405Y0181038D01*
X0351405Y0182636D02*
X0354138Y0182636D01*
X0354475Y0184235D02*
X0351032Y0184235D01*
X0350370Y0185833D02*
X0355231Y0185833D01*
X0356535Y0187432D02*
X0348965Y0187432D01*
X0351062Y0179439D02*
X0354455Y0179439D01*
X0355188Y0177841D02*
X0350400Y0177841D01*
X0349039Y0176242D02*
X0356461Y0176242D01*
X0358941Y0174644D02*
X0346559Y0174644D01*
X0340841Y0174644D02*
X0272633Y0174644D01*
X0274098Y0173045D02*
X0392000Y0173045D01*
X0392000Y0171447D02*
X0274400Y0171447D01*
X0274400Y0169848D02*
X0392000Y0169848D01*
X0392000Y0168250D02*
X0274400Y0168250D01*
X0274460Y0166651D02*
X0279140Y0166651D01*
X0277274Y0165053D02*
X0276326Y0165053D01*
X0267163Y0158659D02*
X0266437Y0158659D01*
X0264729Y0157060D02*
X0268871Y0157060D01*
X0268414Y0153863D02*
X0392000Y0153863D01*
X0392000Y0152265D02*
X0388709Y0152265D01*
X0391178Y0150666D02*
X0392000Y0150666D01*
X0380166Y0152265D02*
X0270012Y0152265D01*
X0271611Y0150666D02*
X0377697Y0150666D01*
X0376136Y0149068D02*
X0273209Y0149068D01*
X0274337Y0147469D02*
X0375213Y0147469D01*
X0374579Y0145870D02*
X0274400Y0145870D01*
X0274400Y0144272D02*
X0374150Y0144272D01*
X0374126Y0142673D02*
X0274400Y0142673D01*
X0274400Y0141075D02*
X0374231Y0141075D01*
X0374659Y0139476D02*
X0274400Y0139476D01*
X0274400Y0137878D02*
X0375386Y0137878D01*
X0376399Y0136279D02*
X0274399Y0136279D01*
X0273358Y0134681D02*
X0377997Y0134681D01*
X0380951Y0133082D02*
X0271759Y0133082D01*
X0270161Y0131484D02*
X0392000Y0131484D01*
X0392000Y0133082D02*
X0387925Y0133082D01*
X0390878Y0134681D02*
X0392000Y0134681D01*
X0392000Y0129885D02*
X0268562Y0129885D01*
X0266964Y0128287D02*
X0392000Y0128287D01*
X0392000Y0126688D02*
X0265365Y0126688D01*
X0263767Y0125090D02*
X0392000Y0125090D01*
X0392000Y0123491D02*
X0149668Y0123491D01*
X0148070Y0121893D02*
X0392000Y0121893D01*
X0392000Y0120294D02*
X0146471Y0120294D01*
X0144873Y0118696D02*
X0392000Y0118696D01*
X0392000Y0117097D02*
X0143274Y0117097D01*
X0141676Y0115499D02*
X0392000Y0115499D01*
X0392000Y0113900D02*
X0140077Y0113900D01*
X0138479Y0112302D02*
X0392000Y0112302D01*
X0392000Y0110703D02*
X0136880Y0110703D01*
X0135282Y0109105D02*
X0392000Y0109105D01*
X0392000Y0107506D02*
X0133683Y0107506D01*
X0132085Y0105908D02*
X0392000Y0105908D01*
X0392000Y0104309D02*
X0130486Y0104309D01*
X0128888Y0102711D02*
X0392000Y0102711D01*
X0392000Y0101112D02*
X0127289Y0101112D01*
X0125691Y0099514D02*
X0392000Y0099514D01*
X0392000Y0097915D02*
X0124092Y0097915D01*
X0122494Y0096317D02*
X0392000Y0096317D01*
X0392000Y0094718D02*
X0120895Y0094718D01*
X0119297Y0093120D02*
X0392000Y0093120D01*
X0392000Y0091521D02*
X0117698Y0091521D01*
X0116100Y0089923D02*
X0392000Y0089923D01*
X0392000Y0088324D02*
X0114501Y0088324D01*
X0112902Y0086726D02*
X0392000Y0086726D01*
X0392000Y0085127D02*
X0111304Y0085127D01*
X0109705Y0083529D02*
X0392000Y0083529D01*
X0392000Y0081930D02*
X0108107Y0081930D01*
X0106508Y0080332D02*
X0392000Y0080332D01*
X0392000Y0078733D02*
X0104910Y0078733D01*
X0103311Y0077134D02*
X0392000Y0077134D01*
X0392000Y0075536D02*
X0101713Y0075536D01*
X0100114Y0073937D02*
X0392000Y0073937D01*
X0392000Y0072339D02*
X0098516Y0072339D01*
X0096917Y0070740D02*
X0392000Y0070740D01*
X0392000Y0069142D02*
X0095319Y0069142D01*
X0093720Y0067543D02*
X0392000Y0067543D01*
X0392000Y0065945D02*
X0092122Y0065945D01*
X0090523Y0064346D02*
X0392000Y0064346D01*
X0392000Y0062748D02*
X0088925Y0062748D01*
X0087326Y0061149D02*
X0392000Y0061149D01*
X0392000Y0059551D02*
X0085728Y0059551D01*
X0084129Y0057952D02*
X0392000Y0057952D01*
X0392000Y0056354D02*
X0082531Y0056354D01*
X0080932Y0054755D02*
X0392000Y0054755D01*
X0392000Y0053157D02*
X0079334Y0053157D01*
X0077735Y0051558D02*
X0392000Y0051558D01*
X0392000Y0049960D02*
X0076137Y0049960D01*
X0074538Y0048361D02*
X0392000Y0048361D01*
X0392000Y0046763D02*
X0072940Y0046763D01*
X0071341Y0045164D02*
X0392000Y0045164D01*
X0392000Y0043566D02*
X0069743Y0043566D01*
X0068144Y0041967D02*
X0392000Y0041967D01*
X0392000Y0040369D02*
X0066546Y0040369D01*
X0064947Y0038770D02*
X0392000Y0038770D01*
X0392000Y0037172D02*
X0063349Y0037172D01*
X0062226Y0035573D02*
X0392000Y0035573D01*
X0392000Y0033975D02*
X0062300Y0033975D01*
X0061956Y0032376D02*
X0392000Y0032376D01*
X0392000Y0030778D02*
X0386954Y0030778D01*
X0390507Y0029179D02*
X0392000Y0029179D01*
X0381921Y0030778D02*
X0091679Y0030778D01*
X0095232Y0029179D02*
X0378368Y0029179D01*
X0376659Y0027581D02*
X0369450Y0027581D01*
X0373094Y0025982D02*
X0375536Y0025982D01*
X0364150Y0027581D02*
X0096941Y0027581D01*
X0098064Y0025982D02*
X0360506Y0025982D01*
X0358687Y0024384D02*
X0098871Y0024384D01*
X0099300Y0022785D02*
X0357439Y0022785D01*
X0356516Y0021187D02*
X0099474Y0021187D01*
X0099474Y0019588D02*
X0356056Y0019588D01*
X0355701Y0017990D02*
X0099091Y0017990D01*
X0098537Y0016391D02*
X0355701Y0016391D01*
X0355847Y0014793D02*
X0097614Y0014793D01*
X0096163Y0013194D02*
X0356275Y0013194D01*
X0261208Y0129885D02*
X0011600Y0129885D01*
X0011600Y0128287D02*
X0147110Y0128287D01*
X0145511Y0126688D02*
X0011600Y0126688D01*
X0011600Y0125090D02*
X0143913Y0125090D01*
X0142314Y0123491D02*
X0011600Y0123491D01*
X0011600Y0121893D02*
X0013573Y0121893D01*
X0012027Y0120294D02*
X0011600Y0120294D01*
X0011600Y0113900D02*
X0011912Y0113900D01*
X0011600Y0112302D02*
X0013293Y0112302D01*
X0011600Y0110703D02*
X0129526Y0110703D01*
X0127928Y0109105D02*
X0011600Y0109105D01*
X0011600Y0107506D02*
X0126329Y0107506D01*
X0124731Y0105908D02*
X0011600Y0105908D01*
X0011600Y0104309D02*
X0123132Y0104309D01*
X0121534Y0102711D02*
X0011600Y0102711D01*
X0011600Y0101112D02*
X0119935Y0101112D01*
X0118337Y0099514D02*
X0011600Y0099514D01*
X0011600Y0097915D02*
X0116738Y0097915D01*
X0115140Y0096317D02*
X0011600Y0096317D01*
X0011600Y0094718D02*
X0113541Y0094718D01*
X0111943Y0093120D02*
X0011600Y0093120D01*
X0011600Y0091521D02*
X0110344Y0091521D01*
X0108746Y0089923D02*
X0011600Y0089923D01*
X0011600Y0088324D02*
X0107147Y0088324D01*
X0105549Y0086726D02*
X0069879Y0086726D01*
X0069833Y0086771D02*
X0067610Y0087693D01*
X0065203Y0087693D01*
X0062979Y0086771D01*
X0061277Y0085070D01*
X0060356Y0082846D01*
X0060356Y0080439D01*
X0061277Y0078215D01*
X0062979Y0076514D01*
X0065203Y0075593D01*
X0067610Y0075593D01*
X0069833Y0076514D01*
X0071535Y0078215D01*
X0072456Y0080439D01*
X0072456Y0082846D01*
X0071535Y0085070D01*
X0069833Y0086771D01*
X0071478Y0085127D02*
X0103950Y0085127D01*
X0102352Y0083529D02*
X0072174Y0083529D01*
X0072456Y0081930D02*
X0100753Y0081930D01*
X0099155Y0080332D02*
X0072412Y0080332D01*
X0071750Y0078733D02*
X0097556Y0078733D01*
X0095958Y0077134D02*
X0070454Y0077134D01*
X0062358Y0077134D02*
X0021242Y0077134D01*
X0022537Y0078733D02*
X0061063Y0078733D01*
X0060401Y0080332D02*
X0023199Y0080332D01*
X0023244Y0081930D02*
X0060356Y0081930D01*
X0060639Y0083529D02*
X0022961Y0083529D01*
X0022265Y0085127D02*
X0061335Y0085127D01*
X0062933Y0086726D02*
X0020667Y0086726D01*
X0013721Y0086726D02*
X0011600Y0086726D01*
X0011600Y0085127D02*
X0012122Y0085127D01*
X0011850Y0078733D02*
X0011600Y0078733D01*
X0011600Y0077134D02*
X0013146Y0077134D01*
X0011600Y0075536D02*
X0094359Y0075536D01*
X0092761Y0073937D02*
X0011600Y0073937D01*
X0011600Y0072339D02*
X0091162Y0072339D01*
X0089564Y0070740D02*
X0011600Y0070740D01*
X0011600Y0069142D02*
X0087965Y0069142D01*
X0086366Y0067543D02*
X0068730Y0067543D01*
X0069833Y0067086D02*
X0067610Y0068007D01*
X0065203Y0068007D01*
X0062979Y0067086D01*
X0061277Y0065385D01*
X0060356Y0063161D01*
X0060356Y0060754D01*
X0061277Y0058530D01*
X0062979Y0056829D01*
X0065203Y0055907D01*
X0067610Y0055907D01*
X0069833Y0056829D01*
X0071535Y0058530D01*
X0072456Y0060754D01*
X0072456Y0063161D01*
X0071535Y0065385D01*
X0069833Y0067086D01*
X0070975Y0065945D02*
X0084768Y0065945D01*
X0083169Y0064346D02*
X0071965Y0064346D01*
X0072456Y0062748D02*
X0081571Y0062748D01*
X0079972Y0061149D02*
X0072456Y0061149D01*
X0071958Y0059551D02*
X0078374Y0059551D01*
X0076775Y0057952D02*
X0070957Y0057952D01*
X0068687Y0056354D02*
X0075177Y0056354D01*
X0073578Y0054755D02*
X0011600Y0054755D01*
X0011600Y0053157D02*
X0071980Y0053157D01*
X0070381Y0051558D02*
X0011600Y0051558D01*
X0011600Y0049960D02*
X0068783Y0049960D01*
X0067184Y0048361D02*
X0011600Y0048361D01*
X0011600Y0046763D02*
X0065586Y0046763D01*
X0063987Y0045164D02*
X0011600Y0045164D01*
X0011600Y0043566D02*
X0062389Y0043566D01*
X0060790Y0041967D02*
X0011600Y0041967D01*
X0011600Y0040369D02*
X0059192Y0040369D01*
X0065600Y0030778D02*
X0086646Y0030778D01*
X0083093Y0029179D02*
X0066761Y0029179D01*
X0067245Y0027581D02*
X0081383Y0027581D01*
X0080261Y0025982D02*
X0067239Y0025982D01*
X0066742Y0024384D02*
X0079453Y0024384D01*
X0079025Y0022785D02*
X0065563Y0022785D01*
X0061800Y0022785D02*
X0061800Y0022785D01*
X0061800Y0024384D02*
X0061800Y0024384D01*
X0061800Y0025982D02*
X0061800Y0025982D01*
X0058037Y0022785D02*
X0055563Y0022785D01*
X0056752Y0024384D02*
X0056858Y0024384D01*
X0064125Y0056354D02*
X0019475Y0056354D01*
X0021745Y0057952D02*
X0061855Y0057952D01*
X0060855Y0059551D02*
X0022745Y0059551D01*
X0023244Y0061149D02*
X0060356Y0061149D01*
X0060356Y0062748D02*
X0023244Y0062748D01*
X0022753Y0064346D02*
X0060847Y0064346D01*
X0061838Y0065945D02*
X0021762Y0065945D01*
X0019517Y0067543D02*
X0064083Y0067543D01*
X0014870Y0067543D02*
X0011600Y0067543D01*
X0011600Y0065945D02*
X0012625Y0065945D01*
X0011635Y0064346D02*
X0011600Y0064346D01*
X0011600Y0059551D02*
X0011642Y0059551D01*
X0011600Y0057952D02*
X0012643Y0057952D01*
X0011600Y0056354D02*
X0014913Y0056354D01*
X0021094Y0112302D02*
X0062506Y0112302D01*
X0062979Y0111829D02*
X0065203Y0110907D01*
X0067610Y0110907D01*
X0069833Y0111829D01*
X0071535Y0113530D01*
X0072456Y0115754D01*
X0072456Y0118161D01*
X0071535Y0120385D01*
X0069833Y0122086D01*
X0067610Y0123007D01*
X0065203Y0123007D01*
X0062979Y0122086D01*
X0061277Y0120385D01*
X0060356Y0118161D01*
X0060356Y0115754D01*
X0061277Y0113530D01*
X0062979Y0111829D01*
X0061124Y0113900D02*
X0022476Y0113900D01*
X0023138Y0115499D02*
X0060462Y0115499D01*
X0060356Y0117097D02*
X0023244Y0117097D01*
X0023022Y0118696D02*
X0060578Y0118696D01*
X0061240Y0120294D02*
X0022360Y0120294D01*
X0020814Y0121893D02*
X0062786Y0121893D01*
X0070027Y0121893D02*
X0140716Y0121893D01*
X0139117Y0120294D02*
X0071573Y0120294D01*
X0072235Y0118696D02*
X0137519Y0118696D01*
X0135920Y0117097D02*
X0072456Y0117097D01*
X0072351Y0115499D02*
X0134322Y0115499D01*
X0132723Y0113900D02*
X0071688Y0113900D01*
X0070307Y0112302D02*
X0131125Y0112302D01*
X0133248Y0137878D02*
X0138384Y0137878D01*
X0136385Y0139476D02*
X0135247Y0139476D01*
X0140816Y0142824D02*
X0140816Y0175816D01*
X0146800Y0181800D01*
X0156800Y0181800D01*
X0181800Y0206800D01*
X0181800Y0211800D01*
X0198800Y0228800D01*
X0204800Y0228800D01*
X0211800Y0221800D01*
X0215582Y0225796D02*
X0218018Y0225796D01*
X0216840Y0224198D02*
X0216760Y0224198D01*
X0221800Y0221800D02*
X0215300Y0215300D01*
X0195300Y0215300D01*
X0166800Y0186800D01*
X0166800Y0171800D01*
X0150816Y0155816D01*
X0150816Y0142824D01*
X0145816Y0145125D02*
X0145478Y0145939D01*
X0143931Y0147486D01*
X0143416Y0147700D01*
X0143416Y0168200D01*
X0143510Y0168106D01*
X0144153Y0167638D01*
X0144861Y0167277D01*
X0145617Y0167032D01*
X0146403Y0166907D01*
X0146800Y0166907D01*
X0147197Y0166907D01*
X0147983Y0167032D01*
X0148739Y0167277D01*
X0149447Y0167638D01*
X0150090Y0168106D01*
X0150652Y0168668D01*
X0151119Y0169311D01*
X0151480Y0170019D01*
X0151726Y0170775D01*
X0151850Y0171560D01*
X0151850Y0171957D01*
X0146800Y0171957D01*
X0146800Y0166907D01*
X0146800Y0171957D01*
X0146800Y0171957D01*
X0146800Y0171958D01*
X0146800Y0177007D01*
X0146403Y0177007D01*
X0145617Y0176883D01*
X0145532Y0176855D01*
X0147877Y0179200D01*
X0157317Y0179200D01*
X0158273Y0179596D01*
X0164200Y0185523D01*
X0164200Y0172877D01*
X0148612Y0157289D01*
X0148216Y0156333D01*
X0148216Y0147700D01*
X0147700Y0147486D01*
X0146153Y0145939D01*
X0145816Y0145125D01*
X0145507Y0145870D02*
X0146125Y0145870D01*
X0147683Y0147469D02*
X0143949Y0147469D01*
X0143416Y0149068D02*
X0148216Y0149068D01*
X0148216Y0150666D02*
X0143416Y0150666D01*
X0143416Y0152265D02*
X0148216Y0152265D01*
X0148216Y0153863D02*
X0143416Y0153863D01*
X0143416Y0155462D02*
X0148216Y0155462D01*
X0148517Y0157060D02*
X0143416Y0157060D01*
X0143416Y0158659D02*
X0149982Y0158659D01*
X0151580Y0160257D02*
X0143416Y0160257D01*
X0143416Y0161856D02*
X0153179Y0161856D01*
X0154777Y0163454D02*
X0143416Y0163454D01*
X0143416Y0165053D02*
X0156376Y0165053D01*
X0157974Y0166651D02*
X0143416Y0166651D01*
X0146800Y0168250D02*
X0146800Y0168250D01*
X0146800Y0169848D02*
X0146800Y0169848D01*
X0146800Y0171447D02*
X0146800Y0171447D01*
X0146800Y0171958D02*
X0151850Y0171958D01*
X0151850Y0172355D01*
X0151726Y0173140D01*
X0151480Y0173896D01*
X0151119Y0174604D01*
X0150652Y0175247D01*
X0150090Y0175809D01*
X0149447Y0176277D01*
X0148739Y0176637D01*
X0147983Y0176883D01*
X0147197Y0177007D01*
X0146800Y0177007D01*
X0146800Y0171958D01*
X0146800Y0171958D01*
X0146800Y0173045D02*
X0146800Y0173045D01*
X0146800Y0174644D02*
X0146800Y0174644D01*
X0146800Y0176242D02*
X0146800Y0176242D01*
X0146518Y0177841D02*
X0164200Y0177841D01*
X0164200Y0179439D02*
X0157895Y0179439D01*
X0159715Y0181038D02*
X0164200Y0181038D01*
X0164200Y0182636D02*
X0161313Y0182636D01*
X0162912Y0184235D02*
X0164200Y0184235D01*
X0169400Y0184235D02*
X0172408Y0184235D01*
X0172519Y0184503D02*
X0171750Y0182647D01*
X0171750Y0180638D01*
X0172519Y0178782D01*
X0173939Y0177361D01*
X0175795Y0176593D01*
X0177805Y0176593D01*
X0179661Y0177361D01*
X0181081Y0178782D01*
X0181850Y0180638D01*
X0181850Y0182647D01*
X0181081Y0184503D01*
X0179661Y0185924D01*
X0177805Y0186693D01*
X0175795Y0186693D01*
X0173939Y0185924D01*
X0172519Y0184503D01*
X0173849Y0185833D02*
X0169510Y0185833D01*
X0171109Y0187432D02*
X0237491Y0187432D01*
X0235893Y0189030D02*
X0185538Y0189030D01*
X0185945Y0185943D02*
X0184364Y0185288D01*
X0183155Y0184078D01*
X0182500Y0182498D01*
X0182500Y0180787D01*
X0183155Y0179207D01*
X0184364Y0177997D01*
X0185945Y0177343D01*
X0187655Y0177343D01*
X0189236Y0177997D01*
X0190281Y0179043D01*
X0228050Y0179043D01*
X0229073Y0178019D01*
X0234527Y0178019D01*
X0235581Y0179073D01*
X0235581Y0184527D01*
X0234527Y0185581D01*
X0229073Y0185581D01*
X0228019Y0184527D01*
X0228019Y0184243D01*
X0190281Y0184243D01*
X0189236Y0185288D01*
X0187655Y0185943D01*
X0185945Y0185943D01*
X0185681Y0185833D02*
X0179751Y0185833D01*
X0181192Y0184235D02*
X0183311Y0184235D01*
X0182557Y0182636D02*
X0181850Y0182636D01*
X0181850Y0181038D02*
X0182500Y0181038D01*
X0183058Y0179439D02*
X0181353Y0179439D01*
X0180140Y0177841D02*
X0184742Y0177841D01*
X0188858Y0177841D02*
X0247082Y0177841D01*
X0245484Y0179439D02*
X0235581Y0179439D01*
X0235581Y0181038D02*
X0243885Y0181038D01*
X0242287Y0182636D02*
X0235581Y0182636D01*
X0235581Y0184235D02*
X0240688Y0184235D01*
X0239090Y0185833D02*
X0187919Y0185833D01*
X0186800Y0181643D02*
X0231643Y0181643D01*
X0231800Y0181800D01*
X0241648Y0190629D02*
X0392000Y0190629D01*
X0392000Y0192227D02*
X0240050Y0192227D01*
X0238451Y0193826D02*
X0392000Y0193826D01*
X0392000Y0195424D02*
X0190581Y0195424D01*
X0190700Y0197023D02*
X0392000Y0197023D01*
X0392000Y0198621D02*
X0192298Y0198621D01*
X0193897Y0200220D02*
X0392000Y0200220D01*
X0392000Y0201818D02*
X0195495Y0201818D01*
X0197094Y0203417D02*
X0392000Y0203417D01*
X0392000Y0205015D02*
X0198692Y0205015D01*
X0200291Y0206614D02*
X0392000Y0206614D01*
X0392000Y0208212D02*
X0379136Y0208212D01*
X0379078Y0208155D02*
X0380288Y0209364D01*
X0380943Y0210945D01*
X0380943Y0212655D01*
X0380288Y0214236D01*
X0379078Y0215445D01*
X0377498Y0216100D01*
X0375787Y0216100D01*
X0374207Y0215445D01*
X0372997Y0214236D01*
X0372343Y0212655D01*
X0372343Y0210945D01*
X0372997Y0209364D01*
X0374207Y0208155D01*
X0375787Y0207500D01*
X0377498Y0207500D01*
X0379078Y0208155D01*
X0380473Y0209811D02*
X0392000Y0209811D01*
X0392000Y0211409D02*
X0380943Y0211409D01*
X0380796Y0213008D02*
X0392000Y0213008D01*
X0392000Y0214606D02*
X0379917Y0214606D01*
X0373368Y0214606D02*
X0360232Y0214606D01*
X0360603Y0214236D02*
X0359393Y0215445D01*
X0357813Y0216100D01*
X0356102Y0216100D01*
X0354522Y0215445D01*
X0353312Y0214236D01*
X0352657Y0212655D01*
X0352657Y0210945D01*
X0353312Y0209364D01*
X0354522Y0208155D01*
X0356102Y0207500D01*
X0357813Y0207500D01*
X0359393Y0208155D01*
X0360603Y0209364D01*
X0361257Y0210945D01*
X0361257Y0212655D01*
X0360603Y0214236D01*
X0361111Y0213008D02*
X0372489Y0213008D01*
X0372343Y0211409D02*
X0361257Y0211409D01*
X0360788Y0209811D02*
X0372812Y0209811D01*
X0374149Y0208212D02*
X0359451Y0208212D01*
X0354464Y0208212D02*
X0201889Y0208212D01*
X0201800Y0211800D02*
X0186800Y0196800D01*
X0181800Y0191800D02*
X0236800Y0191800D01*
X0261800Y0166800D01*
X0261800Y0161800D01*
X0257274Y0165053D02*
X0256326Y0165053D01*
X0254460Y0166651D02*
X0258272Y0166651D01*
X0256673Y0168250D02*
X0166927Y0168250D01*
X0168525Y0169848D02*
X0255075Y0169848D01*
X0253476Y0171447D02*
X0169400Y0171447D01*
X0169400Y0173045D02*
X0251878Y0173045D01*
X0250279Y0174644D02*
X0169400Y0174644D01*
X0169400Y0176242D02*
X0248681Y0176242D01*
X0252838Y0179439D02*
X0253019Y0179439D01*
X0262716Y0184235D02*
X0336368Y0184235D01*
X0335994Y0182636D02*
X0264641Y0182636D01*
X0266239Y0181038D02*
X0335994Y0181038D01*
X0336337Y0179439D02*
X0267838Y0179439D01*
X0269436Y0177841D02*
X0337000Y0177841D01*
X0338361Y0176242D02*
X0271035Y0176242D01*
X0257163Y0158659D02*
X0256437Y0158659D01*
X0254729Y0157060D02*
X0258871Y0157060D01*
X0265856Y0149068D02*
X0153416Y0149068D01*
X0153949Y0147469D02*
X0157683Y0147469D01*
X0156125Y0145870D02*
X0155507Y0145870D01*
X0155247Y0139476D02*
X0156385Y0139476D01*
X0158384Y0137878D02*
X0153248Y0137878D01*
X0148384Y0137878D02*
X0143248Y0137878D01*
X0145247Y0139476D02*
X0146385Y0139476D01*
X0137683Y0147469D02*
X0133949Y0147469D01*
X0135507Y0145870D02*
X0136125Y0145870D01*
X0138216Y0149068D02*
X0097464Y0149068D01*
X0097414Y0149155D02*
X0095494Y0151075D01*
X0093142Y0152433D01*
X0090520Y0153135D01*
X0087805Y0153135D01*
X0085182Y0152433D01*
X0082831Y0151075D01*
X0080911Y0149155D01*
X0079553Y0146804D01*
X0078850Y0144181D01*
X0078850Y0141466D01*
X0079553Y0138843D01*
X0080911Y0136492D01*
X0082831Y0134572D01*
X0085182Y0133215D01*
X0087805Y0132512D01*
X0090520Y0132512D01*
X0093142Y0133215D01*
X0095494Y0134572D01*
X0097414Y0136492D01*
X0098771Y0138843D01*
X0099474Y0141466D01*
X0099474Y0144181D01*
X0098771Y0146804D01*
X0097414Y0149155D01*
X0098387Y0147469D02*
X0105583Y0147469D01*
X0105316Y0145870D02*
X0099021Y0145870D01*
X0099450Y0144272D02*
X0105316Y0144272D01*
X0105316Y0141075D02*
X0099369Y0141075D01*
X0099474Y0142673D02*
X0110616Y0142673D01*
X0110616Y0141075D02*
X0111016Y0141075D01*
X0111016Y0139476D02*
X0110616Y0139476D01*
X0110616Y0137878D02*
X0111016Y0137878D01*
X0115816Y0137878D02*
X0118384Y0137878D01*
X0116385Y0139476D02*
X0116316Y0139476D01*
X0111016Y0144272D02*
X0110616Y0144272D01*
X0110616Y0145870D02*
X0111016Y0145870D01*
X0111016Y0147469D02*
X0110616Y0147469D01*
X0116048Y0147469D02*
X0117683Y0147469D01*
X0123949Y0147469D02*
X0127683Y0147469D01*
X0126125Y0145870D02*
X0125507Y0145870D01*
X0125247Y0139476D02*
X0126385Y0139476D01*
X0128384Y0137878D02*
X0123248Y0137878D01*
X0105816Y0137878D02*
X0098214Y0137878D01*
X0098941Y0139476D02*
X0105316Y0139476D01*
X0097201Y0136279D02*
X0267602Y0136279D01*
X0266004Y0134681D02*
X0095603Y0134681D01*
X0092649Y0133082D02*
X0264405Y0133082D01*
X0262807Y0131484D02*
X0069762Y0131484D01*
X0069833Y0131514D02*
X0071535Y0133215D01*
X0072456Y0135439D01*
X0072456Y0137846D01*
X0071535Y0140070D01*
X0069833Y0141771D01*
X0067610Y0142693D01*
X0065203Y0142693D01*
X0062979Y0141771D01*
X0061277Y0140070D01*
X0060356Y0137846D01*
X0060356Y0135439D01*
X0061277Y0133215D01*
X0062979Y0131514D01*
X0065203Y0130593D01*
X0067610Y0130593D01*
X0069833Y0131514D01*
X0071402Y0133082D02*
X0085675Y0133082D01*
X0082722Y0134681D02*
X0072142Y0134681D01*
X0072456Y0136279D02*
X0081123Y0136279D01*
X0080111Y0137878D02*
X0072443Y0137878D01*
X0071781Y0139476D02*
X0079384Y0139476D01*
X0078955Y0141075D02*
X0070530Y0141075D01*
X0067656Y0142673D02*
X0078850Y0142673D01*
X0078875Y0144272D02*
X0011600Y0144272D01*
X0011600Y0145870D02*
X0079303Y0145870D01*
X0079937Y0147469D02*
X0011600Y0147469D01*
X0011600Y0149068D02*
X0080860Y0149068D01*
X0082422Y0150666D02*
X0011600Y0150666D01*
X0011600Y0152265D02*
X0084891Y0152265D01*
X0093434Y0152265D02*
X0138216Y0152265D01*
X0138216Y0153863D02*
X0011600Y0153863D01*
X0011600Y0155462D02*
X0138216Y0155462D01*
X0138216Y0157060D02*
X0011600Y0157060D01*
X0011600Y0158659D02*
X0138216Y0158659D01*
X0138216Y0160257D02*
X0011600Y0160257D01*
X0011600Y0161856D02*
X0138216Y0161856D01*
X0138216Y0163454D02*
X0011600Y0163454D01*
X0011600Y0165053D02*
X0138216Y0165053D01*
X0138216Y0166651D02*
X0069405Y0166651D01*
X0069833Y0166829D02*
X0071535Y0168530D01*
X0072456Y0170754D01*
X0072456Y0173161D01*
X0071535Y0175385D01*
X0069833Y0177086D01*
X0067610Y0178007D01*
X0065203Y0178007D01*
X0062979Y0177086D01*
X0061277Y0175385D01*
X0060356Y0173161D01*
X0060356Y0170754D01*
X0061277Y0168530D01*
X0062979Y0166829D01*
X0065203Y0165907D01*
X0067610Y0165907D01*
X0069833Y0166829D01*
X0071254Y0168250D02*
X0138216Y0168250D01*
X0138216Y0169848D02*
X0072081Y0169848D01*
X0072456Y0171447D02*
X0138216Y0171447D01*
X0138216Y0173045D02*
X0103814Y0173045D01*
X0104078Y0173155D02*
X0105288Y0174364D01*
X0105943Y0175945D01*
X0105943Y0177655D01*
X0105288Y0179236D01*
X0104078Y0180445D01*
X0102498Y0181100D01*
X0100787Y0181100D01*
X0099207Y0180445D01*
X0097997Y0179236D01*
X0097343Y0177655D01*
X0097343Y0175945D01*
X0097997Y0174364D01*
X0099207Y0173155D01*
X0100787Y0172500D01*
X0102498Y0172500D01*
X0104078Y0173155D01*
X0105404Y0174644D02*
X0138216Y0174644D01*
X0138216Y0176242D02*
X0105943Y0176242D01*
X0105866Y0177841D02*
X0139164Y0177841D01*
X0140762Y0179439D02*
X0105084Y0179439D01*
X0102648Y0181038D02*
X0142361Y0181038D01*
X0143959Y0182636D02*
X0119443Y0182636D01*
X0119447Y0182638D02*
X0120090Y0183106D01*
X0120652Y0183668D01*
X0121119Y0184311D01*
X0121480Y0185019D01*
X0121726Y0185775D01*
X0121850Y0186560D01*
X0121850Y0186957D01*
X0116800Y0186957D01*
X0116800Y0181907D01*
X0117197Y0181907D01*
X0117983Y0182032D01*
X0118739Y0182277D01*
X0119447Y0182638D01*
X0121064Y0184235D02*
X0123463Y0184235D01*
X0123520Y0184156D02*
X0123999Y0183678D01*
X0124546Y0183280D01*
X0125149Y0182973D01*
X0125793Y0182763D01*
X0126462Y0182657D01*
X0126800Y0182657D01*
X0127138Y0182657D01*
X0127807Y0182763D01*
X0128451Y0182973D01*
X0129054Y0183280D01*
X0129601Y0183678D01*
X0130080Y0184156D01*
X0130478Y0184704D01*
X0130785Y0185307D01*
X0130994Y0185951D01*
X0131100Y0186619D01*
X0131100Y0186957D01*
X0126800Y0186957D01*
X0126800Y0182657D01*
X0126800Y0186957D01*
X0126800Y0186957D01*
X0122500Y0186957D01*
X0122500Y0186619D01*
X0122606Y0185951D01*
X0122815Y0185307D01*
X0123122Y0184704D01*
X0123520Y0184156D01*
X0122644Y0185833D02*
X0121735Y0185833D01*
X0121850Y0186958D02*
X0121850Y0187355D01*
X0121726Y0188140D01*
X0121480Y0188896D01*
X0121119Y0189604D01*
X0120652Y0190247D01*
X0120090Y0190809D01*
X0119447Y0191277D01*
X0118739Y0191637D01*
X0117983Y0191883D01*
X0117197Y0192007D01*
X0116800Y0192007D01*
X0116403Y0192007D01*
X0115617Y0191883D01*
X0114861Y0191637D01*
X0114153Y0191277D01*
X0113510Y0190809D01*
X0112948Y0190247D01*
X0112481Y0189604D01*
X0112120Y0188896D01*
X0111874Y0188140D01*
X0111750Y0187355D01*
X0111750Y0186958D01*
X0116800Y0186958D01*
X0116800Y0192007D01*
X0116800Y0186958D01*
X0116800Y0186958D01*
X0116800Y0186957D01*
X0116800Y0186957D01*
X0116800Y0181907D01*
X0116403Y0181907D01*
X0115617Y0182032D01*
X0114861Y0182277D01*
X0114153Y0182638D01*
X0113510Y0183106D01*
X0112948Y0183668D01*
X0112481Y0184311D01*
X0112120Y0185019D01*
X0111874Y0185775D01*
X0111750Y0186560D01*
X0111750Y0186957D01*
X0116800Y0186957D01*
X0116800Y0186958D01*
X0121850Y0186958D01*
X0121838Y0187432D02*
X0122522Y0187432D01*
X0122500Y0187296D02*
X0122500Y0186958D01*
X0126800Y0186958D01*
X0126800Y0191257D01*
X0126462Y0191257D01*
X0125793Y0191152D01*
X0125149Y0190942D01*
X0124546Y0190635D01*
X0123999Y0190237D01*
X0123520Y0189759D01*
X0123122Y0189211D01*
X0122815Y0188608D01*
X0122606Y0187964D01*
X0122500Y0187296D01*
X0123030Y0189030D02*
X0121412Y0189030D01*
X0120270Y0190629D02*
X0124538Y0190629D01*
X0126800Y0190629D02*
X0126800Y0190629D01*
X0126800Y0191257D02*
X0126800Y0186958D01*
X0126800Y0186958D01*
X0126800Y0186957D01*
X0126800Y0186958D01*
X0131100Y0186958D01*
X0131100Y0187296D01*
X0130994Y0187964D01*
X0130785Y0188608D01*
X0130478Y0189211D01*
X0130080Y0189759D01*
X0129601Y0190237D01*
X0129054Y0190635D01*
X0128451Y0190942D01*
X0127807Y0191152D01*
X0127138Y0191257D01*
X0126800Y0191257D01*
X0126800Y0189030D02*
X0126800Y0189030D01*
X0126800Y0187432D02*
X0126800Y0187432D01*
X0126800Y0185833D02*
X0126800Y0185833D01*
X0126800Y0184235D02*
X0126800Y0184235D01*
X0130137Y0184235D02*
X0145884Y0184235D01*
X0145795Y0186593D02*
X0143939Y0187361D01*
X0142519Y0188782D01*
X0141750Y0190638D01*
X0141750Y0192647D01*
X0142519Y0194503D01*
X0143939Y0195924D01*
X0145795Y0196693D01*
X0147805Y0196693D01*
X0149661Y0195924D01*
X0151081Y0194503D01*
X0151850Y0192647D01*
X0151850Y0190638D01*
X0151081Y0188782D01*
X0149661Y0187361D01*
X0147805Y0186593D01*
X0145795Y0186593D01*
X0143869Y0187432D02*
X0131078Y0187432D01*
X0130956Y0185833D02*
X0157156Y0185833D01*
X0157655Y0187343D02*
X0155945Y0187343D01*
X0154364Y0187997D01*
X0153155Y0189207D01*
X0152500Y0190787D01*
X0152500Y0192498D01*
X0153155Y0194078D01*
X0154364Y0195288D01*
X0155945Y0195943D01*
X0157655Y0195943D01*
X0159236Y0195288D01*
X0160445Y0194078D01*
X0161100Y0192498D01*
X0161100Y0190787D01*
X0160445Y0189207D01*
X0159236Y0187997D01*
X0157655Y0187343D01*
X0157871Y0187432D02*
X0158755Y0187432D01*
X0160269Y0189030D02*
X0160353Y0189030D01*
X0161034Y0190629D02*
X0161952Y0190629D01*
X0161100Y0192227D02*
X0163550Y0192227D01*
X0165149Y0193826D02*
X0160550Y0193826D01*
X0158906Y0195424D02*
X0166747Y0195424D01*
X0168346Y0197023D02*
X0105943Y0197023D01*
X0105943Y0197655D02*
X0105943Y0195945D01*
X0105288Y0194364D01*
X0104078Y0193155D01*
X0102498Y0192500D01*
X0100787Y0192500D01*
X0099207Y0193155D01*
X0097997Y0194364D01*
X0097343Y0195945D01*
X0097343Y0197655D01*
X0097997Y0199236D01*
X0099207Y0200445D01*
X0100787Y0201100D01*
X0102498Y0201100D01*
X0104078Y0200445D01*
X0105288Y0199236D01*
X0105943Y0197655D01*
X0105542Y0198621D02*
X0169944Y0198621D01*
X0171543Y0200220D02*
X0104304Y0200220D01*
X0105727Y0195424D02*
X0143440Y0195424D01*
X0142238Y0193826D02*
X0104749Y0193826D01*
X0103635Y0190629D02*
X0113330Y0190629D01*
X0112188Y0189030D02*
X0105373Y0189030D01*
X0105288Y0189236D02*
X0104078Y0190445D01*
X0102498Y0191100D01*
X0100787Y0191100D01*
X0099207Y0190445D01*
X0097997Y0189236D01*
X0097343Y0187655D01*
X0097343Y0185945D01*
X0097997Y0184364D01*
X0099207Y0183155D01*
X0100787Y0182500D01*
X0102498Y0182500D01*
X0104078Y0183155D01*
X0105288Y0184364D01*
X0105943Y0185945D01*
X0105943Y0187655D01*
X0105288Y0189236D01*
X0105943Y0187432D02*
X0111762Y0187432D01*
X0111865Y0185833D02*
X0105896Y0185833D01*
X0105158Y0184235D02*
X0112536Y0184235D01*
X0114157Y0182636D02*
X0102827Y0182636D01*
X0100458Y0182636D02*
X0083142Y0182636D01*
X0082813Y0182500D02*
X0084393Y0183155D01*
X0085603Y0184364D01*
X0086257Y0185945D01*
X0086257Y0187655D01*
X0085603Y0189236D01*
X0084393Y0190445D01*
X0082813Y0191100D01*
X0081102Y0191100D01*
X0079522Y0190445D01*
X0078312Y0189236D01*
X0077657Y0187655D01*
X0077657Y0185945D01*
X0078312Y0184364D01*
X0079522Y0183155D01*
X0081102Y0182500D01*
X0082813Y0182500D01*
X0082813Y0181100D02*
X0081102Y0181100D01*
X0079522Y0180445D01*
X0078312Y0179236D01*
X0077657Y0177655D01*
X0077657Y0175945D01*
X0078312Y0174364D01*
X0079522Y0173155D01*
X0081102Y0172500D01*
X0082813Y0172500D01*
X0084393Y0173155D01*
X0085603Y0174364D01*
X0086257Y0175945D01*
X0086257Y0177655D01*
X0085603Y0179236D01*
X0084393Y0180445D01*
X0082813Y0181100D01*
X0082963Y0181038D02*
X0100637Y0181038D01*
X0098201Y0179439D02*
X0085399Y0179439D01*
X0086181Y0177841D02*
X0097419Y0177841D01*
X0097343Y0176242D02*
X0086257Y0176242D01*
X0085719Y0174644D02*
X0097881Y0174644D01*
X0099471Y0173045D02*
X0084129Y0173045D01*
X0079786Y0173045D02*
X0072456Y0173045D01*
X0071842Y0174644D02*
X0078196Y0174644D01*
X0077657Y0176242D02*
X0070678Y0176242D01*
X0068012Y0177841D02*
X0077734Y0177841D01*
X0078516Y0179439D02*
X0011600Y0179439D01*
X0011600Y0177841D02*
X0015588Y0177841D01*
X0012922Y0176242D02*
X0011600Y0176242D01*
X0011600Y0174644D02*
X0011758Y0174644D01*
X0011600Y0181038D02*
X0080952Y0181038D01*
X0080773Y0182636D02*
X0011600Y0182636D01*
X0011600Y0184235D02*
X0078442Y0184235D01*
X0077704Y0185833D02*
X0068191Y0185833D01*
X0067610Y0185593D02*
X0069833Y0186514D01*
X0071535Y0188215D01*
X0072456Y0190439D01*
X0072456Y0192846D01*
X0071535Y0195070D01*
X0069833Y0196771D01*
X0067610Y0197693D01*
X0065203Y0197693D01*
X0062979Y0196771D01*
X0061277Y0195070D01*
X0060356Y0192846D01*
X0060356Y0190439D01*
X0061277Y0188215D01*
X0062979Y0186514D01*
X0065203Y0185593D01*
X0067610Y0185593D01*
X0064622Y0185833D02*
X0018978Y0185833D01*
X0021539Y0187432D02*
X0062061Y0187432D01*
X0060940Y0189030D02*
X0022660Y0189030D01*
X0023244Y0190629D02*
X0060356Y0190629D01*
X0060356Y0192227D02*
X0023244Y0192227D01*
X0022838Y0193826D02*
X0060762Y0193826D01*
X0061632Y0195424D02*
X0021968Y0195424D01*
X0020014Y0197023D02*
X0063586Y0197023D01*
X0069226Y0197023D02*
X0077657Y0197023D01*
X0077657Y0197655D02*
X0077657Y0195945D01*
X0078312Y0194364D01*
X0079522Y0193155D01*
X0081102Y0192500D01*
X0082813Y0192500D01*
X0084393Y0193155D01*
X0085603Y0194364D01*
X0086257Y0195945D01*
X0086257Y0197655D01*
X0085603Y0199236D01*
X0084393Y0200445D01*
X0082813Y0201100D01*
X0081102Y0201100D01*
X0079522Y0200445D01*
X0078312Y0199236D01*
X0077657Y0197655D01*
X0078058Y0198621D02*
X0011600Y0198621D01*
X0011600Y0197023D02*
X0014374Y0197023D01*
X0012420Y0195424D02*
X0011600Y0195424D01*
X0011600Y0200220D02*
X0079296Y0200220D01*
X0077873Y0195424D02*
X0071180Y0195424D01*
X0072050Y0193826D02*
X0078851Y0193826D01*
X0079965Y0190629D02*
X0072456Y0190629D01*
X0072456Y0192227D02*
X0141750Y0192227D01*
X0141754Y0190629D02*
X0129062Y0190629D01*
X0130570Y0189030D02*
X0142416Y0189030D01*
X0149731Y0187432D02*
X0155729Y0187432D01*
X0153331Y0189030D02*
X0151184Y0189030D01*
X0151846Y0190629D02*
X0152566Y0190629D01*
X0152500Y0192227D02*
X0151850Y0192227D01*
X0151362Y0193826D02*
X0153050Y0193826D01*
X0154694Y0195424D02*
X0150160Y0195424D01*
X0169400Y0182636D02*
X0171750Y0182636D01*
X0171750Y0181038D02*
X0169400Y0181038D01*
X0169400Y0179439D02*
X0172247Y0179439D01*
X0173460Y0177841D02*
X0169400Y0177841D01*
X0164200Y0176242D02*
X0157235Y0176242D01*
X0157138Y0176257D02*
X0156800Y0176257D01*
X0156462Y0176257D01*
X0155793Y0176152D01*
X0155149Y0175942D01*
X0154546Y0175635D01*
X0153999Y0175237D01*
X0153520Y0174759D01*
X0153122Y0174211D01*
X0152815Y0173608D01*
X0152606Y0172964D01*
X0152500Y0172296D01*
X0152500Y0171958D01*
X0156800Y0171958D01*
X0156800Y0176257D01*
X0156800Y0171958D01*
X0156800Y0171958D01*
X0156800Y0171957D01*
X0156800Y0167657D01*
X0157138Y0167657D01*
X0157807Y0167763D01*
X0158451Y0167973D01*
X0159054Y0168280D01*
X0159601Y0168678D01*
X0160080Y0169156D01*
X0160478Y0169704D01*
X0160785Y0170307D01*
X0160994Y0170951D01*
X0161100Y0171619D01*
X0161100Y0171957D01*
X0156800Y0171957D01*
X0156800Y0171957D01*
X0156800Y0167657D01*
X0156462Y0167657D01*
X0155793Y0167763D01*
X0155149Y0167973D01*
X0154546Y0168280D01*
X0153999Y0168678D01*
X0153520Y0169156D01*
X0153122Y0169704D01*
X0152815Y0170307D01*
X0152606Y0170951D01*
X0152500Y0171619D01*
X0152500Y0171957D01*
X0156800Y0171957D01*
X0156800Y0171958D01*
X0161100Y0171958D01*
X0161100Y0172296D01*
X0160994Y0172964D01*
X0160785Y0173608D01*
X0160478Y0174211D01*
X0160080Y0174759D01*
X0159601Y0175237D01*
X0159054Y0175635D01*
X0158451Y0175942D01*
X0157807Y0176152D01*
X0157138Y0176257D01*
X0156800Y0176242D02*
X0156800Y0176242D01*
X0156365Y0176242D02*
X0149494Y0176242D01*
X0151090Y0174644D02*
X0153437Y0174644D01*
X0152632Y0173045D02*
X0151741Y0173045D01*
X0151832Y0171447D02*
X0152527Y0171447D01*
X0153049Y0169848D02*
X0151393Y0169848D01*
X0150234Y0168250D02*
X0154605Y0168250D01*
X0156800Y0168250D02*
X0156800Y0168250D01*
X0156800Y0169848D02*
X0156800Y0169848D01*
X0156800Y0171447D02*
X0156800Y0171447D01*
X0156800Y0173045D02*
X0156800Y0173045D01*
X0156800Y0174644D02*
X0156800Y0174644D01*
X0160163Y0174644D02*
X0164200Y0174644D01*
X0164200Y0173045D02*
X0160968Y0173045D01*
X0161073Y0171447D02*
X0162770Y0171447D01*
X0161171Y0169848D02*
X0160551Y0169848D01*
X0159573Y0168250D02*
X0158995Y0168250D01*
X0163730Y0165053D02*
X0172807Y0165053D01*
X0172948Y0165247D02*
X0172481Y0164604D01*
X0172120Y0163896D01*
X0171874Y0163140D01*
X0171750Y0162355D01*
X0171750Y0161958D01*
X0176800Y0161958D01*
X0176800Y0167007D01*
X0176403Y0167007D01*
X0175617Y0166883D01*
X0174861Y0166637D01*
X0174153Y0166277D01*
X0173510Y0165809D01*
X0172948Y0165247D01*
X0171976Y0163454D02*
X0162131Y0163454D01*
X0160533Y0161856D02*
X0171750Y0161856D01*
X0171750Y0161957D02*
X0171750Y0161560D01*
X0171874Y0160775D01*
X0172120Y0160019D01*
X0172481Y0159311D01*
X0172948Y0158668D01*
X0173510Y0158106D01*
X0174153Y0157638D01*
X0174861Y0157277D01*
X0175617Y0157032D01*
X0176403Y0156907D01*
X0176800Y0156907D01*
X0177197Y0156907D01*
X0177983Y0157032D01*
X0178739Y0157277D01*
X0179447Y0157638D01*
X0180090Y0158106D01*
X0180652Y0158668D01*
X0181119Y0159311D01*
X0181480Y0160019D01*
X0181726Y0160775D01*
X0181850Y0161560D01*
X0181850Y0161957D01*
X0176800Y0161957D01*
X0176800Y0156907D01*
X0176800Y0161957D01*
X0176800Y0161957D01*
X0171750Y0161957D01*
X0172043Y0160257D02*
X0158934Y0160257D01*
X0157336Y0158659D02*
X0172957Y0158659D01*
X0175531Y0157060D02*
X0155737Y0157060D01*
X0163949Y0147469D02*
X0167683Y0147469D01*
X0166125Y0145870D02*
X0165507Y0145870D01*
X0165247Y0139476D02*
X0166385Y0139476D01*
X0168384Y0137878D02*
X0163248Y0137878D01*
X0173248Y0137878D02*
X0178384Y0137878D01*
X0176385Y0139476D02*
X0175247Y0139476D01*
X0175507Y0145870D02*
X0176125Y0145870D01*
X0177683Y0147469D02*
X0173949Y0147469D01*
X0183949Y0147469D02*
X0187683Y0147469D01*
X0186125Y0145870D02*
X0185507Y0145870D01*
X0185247Y0139476D02*
X0186385Y0139476D01*
X0188384Y0137878D02*
X0183248Y0137878D01*
X0193248Y0137878D02*
X0198384Y0137878D01*
X0196385Y0139476D02*
X0195247Y0139476D01*
X0195507Y0145870D02*
X0196125Y0145870D01*
X0197683Y0147469D02*
X0193949Y0147469D01*
X0203949Y0147469D02*
X0207683Y0147469D01*
X0206125Y0145870D02*
X0205507Y0145870D01*
X0205247Y0139476D02*
X0206385Y0139476D01*
X0208384Y0137878D02*
X0203248Y0137878D01*
X0213248Y0137878D02*
X0218384Y0137878D01*
X0216385Y0139476D02*
X0215247Y0139476D01*
X0215507Y0145870D02*
X0216125Y0145870D01*
X0217683Y0147469D02*
X0213949Y0147469D01*
X0223949Y0147469D02*
X0227683Y0147469D01*
X0226125Y0145870D02*
X0225507Y0145870D01*
X0225247Y0139476D02*
X0226385Y0139476D01*
X0228384Y0137878D02*
X0223248Y0137878D01*
X0233248Y0137878D02*
X0238384Y0137878D01*
X0236385Y0139476D02*
X0235247Y0139476D01*
X0235507Y0145870D02*
X0236125Y0145870D01*
X0237683Y0147469D02*
X0233949Y0147469D01*
X0228871Y0157060D02*
X0224729Y0157060D01*
X0226437Y0158659D02*
X0227163Y0158659D01*
X0227274Y0165053D02*
X0226326Y0165053D01*
X0224460Y0166651D02*
X0229140Y0166651D01*
X0219140Y0166651D02*
X0214460Y0166651D01*
X0216326Y0165053D02*
X0217274Y0165053D01*
X0217163Y0158659D02*
X0216437Y0158659D01*
X0214729Y0157060D02*
X0218871Y0157060D01*
X0208871Y0157060D02*
X0204729Y0157060D01*
X0206437Y0158659D02*
X0207163Y0158659D01*
X0207274Y0165053D02*
X0206326Y0165053D01*
X0204460Y0166651D02*
X0209140Y0166651D01*
X0199140Y0166651D02*
X0178697Y0166651D01*
X0178739Y0166637D02*
X0177983Y0166883D01*
X0177197Y0167007D01*
X0176800Y0167007D01*
X0176800Y0161958D01*
X0176800Y0161958D01*
X0176800Y0161957D01*
X0176800Y0161958D01*
X0181850Y0161958D01*
X0181850Y0162355D01*
X0181726Y0163140D01*
X0181480Y0163896D01*
X0181119Y0164604D01*
X0180652Y0165247D01*
X0180090Y0165809D01*
X0179447Y0166277D01*
X0178739Y0166637D01*
X0176800Y0166651D02*
X0176800Y0166651D01*
X0176800Y0165053D02*
X0176800Y0165053D01*
X0176800Y0163454D02*
X0176800Y0163454D01*
X0176800Y0161856D02*
X0176800Y0161856D01*
X0176800Y0160257D02*
X0176800Y0160257D01*
X0176800Y0158659D02*
X0176800Y0158659D01*
X0176800Y0157060D02*
X0176800Y0157060D01*
X0178069Y0157060D02*
X0198871Y0157060D01*
X0197163Y0158659D02*
X0189575Y0158659D01*
X0189601Y0158678D02*
X0190080Y0159156D01*
X0190478Y0159704D01*
X0190785Y0160307D01*
X0190994Y0160951D01*
X0191100Y0161619D01*
X0191100Y0161957D01*
X0186800Y0161957D01*
X0186800Y0157657D01*
X0187138Y0157657D01*
X0187807Y0157763D01*
X0188451Y0157973D01*
X0189054Y0158280D01*
X0189601Y0158678D01*
X0190760Y0160257D02*
X0196486Y0160257D01*
X0196300Y0161856D02*
X0191100Y0161856D01*
X0191100Y0161958D02*
X0191100Y0162296D01*
X0190994Y0162964D01*
X0190785Y0163608D01*
X0190478Y0164211D01*
X0190080Y0164759D01*
X0189601Y0165237D01*
X0189054Y0165635D01*
X0188451Y0165942D01*
X0187807Y0166152D01*
X0187138Y0166257D01*
X0186800Y0166257D01*
X0186462Y0166257D01*
X0185793Y0166152D01*
X0185149Y0165942D01*
X0184546Y0165635D01*
X0183999Y0165237D01*
X0183520Y0164759D01*
X0183122Y0164211D01*
X0182815Y0163608D01*
X0182606Y0162964D01*
X0182500Y0162296D01*
X0182500Y0161958D01*
X0186800Y0161958D01*
X0186800Y0166257D01*
X0186800Y0161958D01*
X0186800Y0161958D01*
X0186800Y0161957D01*
X0186800Y0161957D01*
X0186800Y0157657D01*
X0186462Y0157657D01*
X0185793Y0157763D01*
X0185149Y0157973D01*
X0184546Y0158280D01*
X0183999Y0158678D01*
X0183520Y0159156D01*
X0183122Y0159704D01*
X0182815Y0160307D01*
X0182606Y0160951D01*
X0182500Y0161619D01*
X0182500Y0161957D01*
X0186800Y0161957D01*
X0186800Y0161958D01*
X0191100Y0161958D01*
X0190835Y0163454D02*
X0196532Y0163454D01*
X0197274Y0165053D02*
X0189786Y0165053D01*
X0186800Y0165053D02*
X0186800Y0165053D01*
X0186800Y0163454D02*
X0186800Y0163454D01*
X0186800Y0161856D02*
X0186800Y0161856D01*
X0186800Y0160257D02*
X0186800Y0160257D01*
X0186800Y0158659D02*
X0186800Y0158659D01*
X0184025Y0158659D02*
X0180643Y0158659D01*
X0181557Y0160257D02*
X0182840Y0160257D01*
X0182500Y0161856D02*
X0181850Y0161856D01*
X0181624Y0163454D02*
X0182765Y0163454D01*
X0183814Y0165053D02*
X0180793Y0165053D01*
X0174903Y0166651D02*
X0165328Y0166651D01*
X0138216Y0150666D02*
X0095903Y0150666D01*
X0065157Y0142673D02*
X0018443Y0142673D01*
X0015944Y0142673D02*
X0011600Y0142673D01*
X0011600Y0141075D02*
X0013070Y0141075D01*
X0011819Y0139476D02*
X0011600Y0139476D01*
X0011600Y0133082D02*
X0012198Y0133082D01*
X0011600Y0131484D02*
X0013838Y0131484D01*
X0020549Y0131484D02*
X0063051Y0131484D01*
X0061410Y0133082D02*
X0022190Y0133082D01*
X0022930Y0134681D02*
X0060670Y0134681D01*
X0060356Y0136279D02*
X0023244Y0136279D01*
X0023230Y0137878D02*
X0060370Y0137878D01*
X0061032Y0139476D02*
X0022568Y0139476D01*
X0021317Y0141075D02*
X0062283Y0141075D01*
X0063408Y0166651D02*
X0020192Y0166651D01*
X0022042Y0168250D02*
X0061558Y0168250D01*
X0060732Y0169848D02*
X0022868Y0169848D01*
X0023244Y0171447D02*
X0060356Y0171447D01*
X0060356Y0173045D02*
X0023244Y0173045D01*
X0022630Y0174644D02*
X0060970Y0174644D01*
X0062135Y0176242D02*
X0021465Y0176242D01*
X0018800Y0177841D02*
X0064800Y0177841D01*
X0070752Y0187432D02*
X0077657Y0187432D01*
X0078227Y0189030D02*
X0071873Y0189030D01*
X0083950Y0190629D02*
X0099650Y0190629D01*
X0097912Y0189030D02*
X0085688Y0189030D01*
X0086257Y0187432D02*
X0097343Y0187432D01*
X0097389Y0185833D02*
X0086211Y0185833D01*
X0085473Y0184235D02*
X0098127Y0184235D01*
X0098536Y0193826D02*
X0085064Y0193826D01*
X0086042Y0195424D02*
X0097558Y0195424D01*
X0097343Y0197023D02*
X0086257Y0197023D01*
X0085857Y0198621D02*
X0097743Y0198621D01*
X0098981Y0200220D02*
X0084619Y0200220D01*
X0089977Y0212400D02*
X0093623Y0212400D01*
X0096200Y0214977D01*
X0096200Y0218623D01*
X0093623Y0221200D01*
X0089977Y0221200D01*
X0087400Y0218623D01*
X0087400Y0214977D01*
X0089977Y0212400D01*
X0089370Y0213008D02*
X0011600Y0213008D01*
X0011600Y0214606D02*
X0087771Y0214606D01*
X0087400Y0216205D02*
X0011600Y0216205D01*
X0011600Y0217803D02*
X0087400Y0217803D01*
X0088179Y0219402D02*
X0011600Y0219402D01*
X0011600Y0221001D02*
X0089778Y0221001D01*
X0093822Y0221001D02*
X0187324Y0221001D01*
X0188922Y0222599D02*
X0148822Y0222599D01*
X0148623Y0222400D02*
X0151200Y0224977D01*
X0151200Y0228623D01*
X0148623Y0231200D01*
X0144977Y0231200D01*
X0142400Y0228623D01*
X0142400Y0224977D01*
X0144977Y0222400D01*
X0148623Y0222400D01*
X0150420Y0224198D02*
X0183180Y0224198D01*
X0183477Y0223900D02*
X0187123Y0223900D01*
X0189700Y0226477D01*
X0189700Y0230123D01*
X0187123Y0232700D01*
X0184577Y0232700D01*
X0168273Y0249004D01*
X0167317Y0249400D01*
X0137877Y0249400D01*
X0115319Y0271957D01*
X0116504Y0273142D01*
X0116900Y0274098D01*
X0116900Y0283177D01*
X0118700Y0284977D01*
X0118700Y0288623D01*
X0116123Y0291200D01*
X0112477Y0291200D01*
X0109900Y0288623D01*
X0109900Y0284977D01*
X0111700Y0283177D01*
X0111700Y0275692D01*
X0110566Y0274557D01*
X0095281Y0274557D01*
X0094236Y0275603D01*
X0092655Y0276257D01*
X0090945Y0276257D01*
X0089364Y0275603D01*
X0088155Y0274393D01*
X0087500Y0272813D01*
X0087500Y0271102D01*
X0088155Y0269522D01*
X0089364Y0268312D01*
X0090945Y0267657D01*
X0092655Y0267657D01*
X0094236Y0268312D01*
X0095281Y0269357D01*
X0110566Y0269357D01*
X0119342Y0260581D01*
X0114073Y0260581D01*
X0113019Y0259527D01*
X0113019Y0259400D01*
X0061283Y0259400D01*
X0060327Y0259004D01*
X0058103Y0256780D01*
X0057814Y0256900D01*
X0055786Y0256900D01*
X0053911Y0256124D01*
X0052476Y0254689D01*
X0051700Y0252814D01*
X0051700Y0250786D01*
X0052476Y0248911D01*
X0053911Y0247476D01*
X0055786Y0246700D01*
X0057814Y0246700D01*
X0059689Y0247476D01*
X0061124Y0248911D01*
X0061900Y0250786D01*
X0061900Y0252814D01*
X0061780Y0253103D01*
X0062877Y0254200D01*
X0113019Y0254200D01*
X0113019Y0254073D01*
X0114073Y0253019D01*
X0119527Y0253019D01*
X0120581Y0254073D01*
X0120581Y0259342D01*
X0134596Y0245327D01*
X0135327Y0244596D01*
X0136283Y0244200D01*
X0165723Y0244200D01*
X0180900Y0229023D01*
X0180900Y0226477D01*
X0183477Y0223900D01*
X0181581Y0225796D02*
X0151200Y0225796D01*
X0151200Y0227395D02*
X0180900Y0227395D01*
X0180900Y0228993D02*
X0150829Y0228993D01*
X0149231Y0230592D02*
X0179331Y0230592D01*
X0177733Y0232190D02*
X0058998Y0232190D01*
X0059689Y0232476D02*
X0061124Y0233911D01*
X0061900Y0235786D01*
X0061900Y0237814D01*
X0061124Y0239689D01*
X0059689Y0241124D01*
X0057814Y0241900D01*
X0055786Y0241900D01*
X0053911Y0241124D01*
X0052476Y0239689D01*
X0051700Y0237814D01*
X0051700Y0235786D01*
X0052476Y0233911D01*
X0053911Y0232476D01*
X0055786Y0231700D01*
X0057814Y0231700D01*
X0059689Y0232476D01*
X0061001Y0233789D02*
X0176134Y0233789D01*
X0174536Y0235387D02*
X0061735Y0235387D01*
X0061900Y0236986D02*
X0172937Y0236986D01*
X0171339Y0238584D02*
X0061581Y0238584D01*
X0060630Y0240183D02*
X0169740Y0240183D01*
X0168142Y0241781D02*
X0058101Y0241781D01*
X0055499Y0241781D02*
X0017952Y0241781D01*
X0017994Y0241774D02*
X0017201Y0241900D01*
X0017100Y0241900D01*
X0017100Y0237100D01*
X0021900Y0237100D01*
X0021900Y0237201D01*
X0021774Y0237994D01*
X0021526Y0238758D01*
X0021162Y0239473D01*
X0020690Y0240122D01*
X0020122Y0240690D01*
X0019473Y0241162D01*
X0018758Y0241526D01*
X0017994Y0241774D01*
X0017100Y0241781D02*
X0016500Y0241781D01*
X0016500Y0241900D02*
X0016399Y0241900D01*
X0015606Y0241774D01*
X0014842Y0241526D01*
X0014127Y0241162D01*
X0013478Y0240690D01*
X0012910Y0240122D01*
X0012438Y0239473D01*
X0012074Y0238758D01*
X0011826Y0237994D01*
X0011700Y0237201D01*
X0011700Y0237100D01*
X0016500Y0237100D01*
X0016500Y0241900D01*
X0015648Y0241781D02*
X0011600Y0241781D01*
X0011600Y0240183D02*
X0012970Y0240183D01*
X0012017Y0238584D02*
X0011600Y0238584D01*
X0011600Y0236986D02*
X0016500Y0236986D01*
X0016500Y0237100D02*
X0016500Y0236500D01*
X0017100Y0236500D01*
X0017100Y0237100D01*
X0016500Y0237100D01*
X0016500Y0236500D02*
X0011700Y0236500D01*
X0011700Y0236399D01*
X0011826Y0235606D01*
X0012074Y0234842D01*
X0012438Y0234127D01*
X0012910Y0233478D01*
X0013478Y0232910D01*
X0014127Y0232438D01*
X0014842Y0232074D01*
X0015606Y0231826D01*
X0016399Y0231700D01*
X0016500Y0231700D01*
X0016500Y0236500D01*
X0017100Y0236500D02*
X0017100Y0231700D01*
X0017201Y0231700D01*
X0017994Y0231826D01*
X0018758Y0232074D01*
X0019473Y0232438D01*
X0020122Y0232910D01*
X0020690Y0233478D01*
X0021162Y0234127D01*
X0021526Y0234842D01*
X0021774Y0235606D01*
X0021900Y0236399D01*
X0021900Y0236500D01*
X0017100Y0236500D01*
X0017100Y0236986D02*
X0051700Y0236986D01*
X0051865Y0235387D02*
X0021703Y0235387D01*
X0020916Y0233789D02*
X0052599Y0233789D01*
X0054602Y0232190D02*
X0018986Y0232190D01*
X0017100Y0232190D02*
X0016500Y0232190D01*
X0016500Y0233789D02*
X0017100Y0233789D01*
X0017100Y0235387D02*
X0016500Y0235387D01*
X0016500Y0238584D02*
X0017100Y0238584D01*
X0017100Y0240183D02*
X0016500Y0240183D01*
X0020630Y0240183D02*
X0052970Y0240183D01*
X0052019Y0238584D02*
X0021583Y0238584D01*
X0014614Y0232190D02*
X0011600Y0232190D01*
X0011600Y0230592D02*
X0144369Y0230592D01*
X0142771Y0228993D02*
X0011600Y0228993D01*
X0011600Y0227395D02*
X0142400Y0227395D01*
X0142400Y0225796D02*
X0011600Y0225796D01*
X0011600Y0224198D02*
X0143180Y0224198D01*
X0144778Y0222599D02*
X0011600Y0222599D01*
X0011600Y0211409D02*
X0115112Y0211409D01*
X0115795Y0211693D02*
X0113939Y0210924D01*
X0112519Y0209503D01*
X0111750Y0207647D01*
X0111750Y0205638D01*
X0112519Y0203782D01*
X0113939Y0202361D01*
X0115795Y0201593D01*
X0117805Y0201593D01*
X0119661Y0202361D01*
X0121081Y0203782D01*
X0121850Y0205638D01*
X0121850Y0207647D01*
X0121081Y0209503D01*
X0119661Y0210924D01*
X0117805Y0211693D01*
X0115795Y0211693D01*
X0118488Y0211409D02*
X0179200Y0211409D01*
X0179200Y0209811D02*
X0129713Y0209811D01*
X0129236Y0210288D02*
X0127655Y0210943D01*
X0125945Y0210943D01*
X0124364Y0210288D01*
X0123155Y0209078D01*
X0122500Y0207498D01*
X0122500Y0205787D01*
X0123155Y0204207D01*
X0124364Y0202997D01*
X0125945Y0202343D01*
X0127655Y0202343D01*
X0129236Y0202997D01*
X0130445Y0204207D01*
X0131100Y0205787D01*
X0131100Y0207498D01*
X0130445Y0209078D01*
X0129236Y0210288D01*
X0130804Y0208212D02*
X0179200Y0208212D01*
X0177937Y0206614D02*
X0131100Y0206614D01*
X0130780Y0205015D02*
X0176338Y0205015D01*
X0174740Y0203417D02*
X0129655Y0203417D01*
X0123945Y0203417D02*
X0120716Y0203417D01*
X0121592Y0205015D02*
X0122820Y0205015D01*
X0122500Y0206614D02*
X0121850Y0206614D01*
X0121616Y0208212D02*
X0122796Y0208212D01*
X0123887Y0209811D02*
X0120773Y0209811D01*
X0112827Y0209811D02*
X0011600Y0209811D01*
X0011600Y0208212D02*
X0111984Y0208212D01*
X0111750Y0206614D02*
X0011600Y0206614D01*
X0011600Y0205015D02*
X0112008Y0205015D01*
X0112884Y0203417D02*
X0011600Y0203417D01*
X0011600Y0201818D02*
X0115250Y0201818D01*
X0118350Y0201818D02*
X0173141Y0201818D01*
X0177503Y0193826D02*
X0178019Y0193826D01*
X0178019Y0192227D02*
X0175904Y0192227D01*
X0174306Y0190629D02*
X0178019Y0190629D01*
X0178062Y0189030D02*
X0172707Y0189030D01*
X0179486Y0213008D02*
X0094230Y0213008D01*
X0095829Y0214606D02*
X0180930Y0214606D01*
X0182528Y0216205D02*
X0096200Y0216205D01*
X0096200Y0217803D02*
X0184127Y0217803D01*
X0185725Y0219402D02*
X0095421Y0219402D01*
X0093623Y0242400D02*
X0089977Y0242400D01*
X0087400Y0244977D01*
X0087400Y0248623D01*
X0089977Y0251200D01*
X0093623Y0251200D01*
X0096200Y0248623D01*
X0096200Y0244977D01*
X0093623Y0242400D01*
X0094602Y0243380D02*
X0166543Y0243380D01*
X0166800Y0246800D02*
X0185300Y0228300D01*
X0188400Y0231477D02*
X0190977Y0228900D01*
X0194623Y0228900D01*
X0197200Y0231477D01*
X0197200Y0235123D01*
X0194623Y0237700D01*
X0190977Y0237700D01*
X0188400Y0235123D01*
X0188400Y0231477D01*
X0188400Y0232190D02*
X0187632Y0232190D01*
X0188400Y0233789D02*
X0183488Y0233789D01*
X0183477Y0233900D02*
X0187123Y0233900D01*
X0189700Y0236477D01*
X0189700Y0240123D01*
X0187123Y0242700D01*
X0183477Y0242700D01*
X0180900Y0240123D01*
X0180900Y0236477D01*
X0183477Y0233900D01*
X0181990Y0235387D02*
X0181890Y0235387D01*
X0180900Y0236986D02*
X0180291Y0236986D01*
X0180900Y0238584D02*
X0178693Y0238584D01*
X0177094Y0240183D02*
X0180960Y0240183D01*
X0182559Y0241781D02*
X0175496Y0241781D01*
X0173897Y0243380D02*
X0197657Y0243380D01*
X0197657Y0243655D02*
X0197657Y0241945D01*
X0198312Y0240364D01*
X0199522Y0239155D01*
X0201102Y0238500D01*
X0202813Y0238500D01*
X0204393Y0239155D01*
X0205603Y0240364D01*
X0206257Y0241945D01*
X0206257Y0243655D01*
X0205603Y0245236D01*
X0204393Y0246445D01*
X0202813Y0247100D01*
X0201102Y0247100D01*
X0199522Y0246445D01*
X0198312Y0245236D01*
X0197657Y0243655D01*
X0198205Y0244978D02*
X0172299Y0244978D01*
X0170700Y0246577D02*
X0199839Y0246577D01*
X0204076Y0246577D02*
X0219583Y0246577D01*
X0219389Y0246478D02*
X0218841Y0246080D01*
X0218363Y0245601D01*
X0217965Y0245054D01*
X0217658Y0244451D01*
X0217448Y0243807D01*
X0217343Y0243138D01*
X0217343Y0242800D01*
X0217343Y0242462D01*
X0217448Y0241793D01*
X0217658Y0241149D01*
X0217965Y0240546D01*
X0218363Y0239999D01*
X0218841Y0239520D01*
X0219389Y0239122D01*
X0219992Y0238815D01*
X0220636Y0238606D01*
X0221304Y0238500D01*
X0221642Y0238500D01*
X0221642Y0242800D01*
X0217343Y0242800D01*
X0221642Y0242800D01*
X0221642Y0242800D01*
X0221643Y0242800D01*
X0225943Y0242800D01*
X0225943Y0243138D01*
X0225837Y0243807D01*
X0225627Y0244451D01*
X0225320Y0245054D01*
X0224922Y0245601D01*
X0224444Y0246080D01*
X0223896Y0246478D01*
X0223293Y0246785D01*
X0222649Y0246994D01*
X0221981Y0247100D01*
X0221643Y0247100D01*
X0221643Y0242800D01*
X0221643Y0242800D01*
X0225943Y0242800D01*
X0225943Y0242462D01*
X0225837Y0241793D01*
X0225627Y0241149D01*
X0225320Y0240546D01*
X0224922Y0239999D01*
X0224444Y0239520D01*
X0223896Y0239122D01*
X0223293Y0238815D01*
X0222649Y0238606D01*
X0221981Y0238500D01*
X0221643Y0238500D01*
X0221643Y0242800D01*
X0221642Y0242800D01*
X0221642Y0247100D01*
X0221304Y0247100D01*
X0220636Y0246994D01*
X0219992Y0246785D01*
X0219389Y0246478D01*
X0218914Y0248175D02*
X0223748Y0248175D01*
X0223702Y0246577D02*
X0225346Y0246577D01*
X0225359Y0244978D02*
X0226945Y0244978D01*
X0225904Y0243380D02*
X0228543Y0243380D01*
X0230142Y0241781D02*
X0225833Y0241781D01*
X0225056Y0240183D02*
X0231740Y0240183D01*
X0233339Y0238584D02*
X0222512Y0238584D01*
X0221643Y0238584D02*
X0221642Y0238584D01*
X0220773Y0238584D02*
X0203016Y0238584D01*
X0200899Y0238584D02*
X0189700Y0238584D01*
X0189700Y0236986D02*
X0190263Y0236986D01*
X0188665Y0235387D02*
X0188610Y0235387D01*
X0189231Y0230592D02*
X0189286Y0230592D01*
X0189700Y0228993D02*
X0190884Y0228993D01*
X0189700Y0227395D02*
X0193718Y0227395D01*
X0194716Y0228993D02*
X0195316Y0228993D01*
X0196314Y0230592D02*
X0196915Y0230592D01*
X0197200Y0232190D02*
X0207763Y0232190D01*
X0207657Y0232445D02*
X0208312Y0230864D01*
X0209522Y0229655D01*
X0211102Y0229000D01*
X0212813Y0229000D01*
X0214393Y0229655D01*
X0215603Y0230864D01*
X0216257Y0232445D01*
X0216257Y0234155D01*
X0215603Y0235736D01*
X0214393Y0236945D01*
X0212813Y0237600D01*
X0211102Y0237600D01*
X0209522Y0236945D01*
X0208312Y0235736D01*
X0207657Y0234155D01*
X0207657Y0232445D01*
X0207657Y0233789D02*
X0197200Y0233789D01*
X0196935Y0235387D02*
X0208168Y0235387D01*
X0209619Y0236986D02*
X0195337Y0236986D01*
X0198494Y0240183D02*
X0189640Y0240183D01*
X0188041Y0241781D02*
X0197725Y0241781D01*
X0205421Y0240183D02*
X0218229Y0240183D01*
X0217452Y0241781D02*
X0206190Y0241781D01*
X0206257Y0243380D02*
X0217381Y0243380D01*
X0217926Y0244978D02*
X0205710Y0244978D01*
X0212642Y0249774D02*
X0189496Y0249774D01*
X0189700Y0249977D02*
X0187123Y0247400D01*
X0183477Y0247400D01*
X0180900Y0249977D01*
X0180900Y0252523D01*
X0174223Y0259200D01*
X0156283Y0259200D01*
X0155327Y0259596D01*
X0154596Y0260327D01*
X0145566Y0269357D01*
X0130281Y0269357D01*
X0129236Y0268312D01*
X0127655Y0267657D01*
X0125945Y0267657D01*
X0124364Y0268312D01*
X0123155Y0269522D01*
X0122500Y0271102D01*
X0122500Y0272813D01*
X0123155Y0274393D01*
X0124364Y0275603D01*
X0125945Y0276257D01*
X0127655Y0276257D01*
X0129236Y0275603D01*
X0130281Y0274557D01*
X0145566Y0274557D01*
X0146700Y0275692D01*
X0146700Y0283177D01*
X0144900Y0284977D01*
X0144900Y0288623D01*
X0147477Y0291200D01*
X0151123Y0291200D01*
X0153700Y0288623D01*
X0153700Y0284977D01*
X0151900Y0283177D01*
X0151900Y0274098D01*
X0151504Y0273142D01*
X0150319Y0271957D01*
X0157877Y0264400D01*
X0175817Y0264400D01*
X0176773Y0264004D01*
X0184577Y0256200D01*
X0187123Y0256200D01*
X0189700Y0253623D01*
X0189700Y0249977D01*
X0189700Y0251372D02*
X0212157Y0251372D01*
X0212288Y0252971D02*
X0195193Y0252971D01*
X0194623Y0252400D02*
X0197200Y0254977D01*
X0197200Y0258623D01*
X0194623Y0261200D01*
X0190977Y0261200D01*
X0188400Y0258623D01*
X0188400Y0254977D01*
X0190977Y0252400D01*
X0194623Y0252400D01*
X0196792Y0254569D02*
X0213146Y0254569D01*
X0215755Y0256168D02*
X0197200Y0256168D01*
X0197200Y0257766D02*
X0200459Y0257766D01*
X0201102Y0257500D02*
X0202813Y0257500D01*
X0204393Y0258155D01*
X0205603Y0259364D01*
X0206257Y0260945D01*
X0206257Y0262655D01*
X0205603Y0264236D01*
X0204393Y0265445D01*
X0202813Y0266100D01*
X0201102Y0266100D01*
X0199522Y0265445D01*
X0198312Y0264236D01*
X0197657Y0262655D01*
X0197657Y0260945D01*
X0198312Y0259364D01*
X0199522Y0258155D01*
X0201102Y0257500D01*
X0203456Y0257766D02*
X0214157Y0257766D01*
X0212558Y0259365D02*
X0205603Y0259365D01*
X0206257Y0260963D02*
X0210960Y0260963D01*
X0209361Y0262562D02*
X0206257Y0262562D01*
X0205634Y0264160D02*
X0207763Y0264160D01*
X0206164Y0265759D02*
X0203636Y0265759D01*
X0204566Y0267357D02*
X0154920Y0267357D01*
X0156518Y0265759D02*
X0183036Y0265759D01*
X0183477Y0266200D02*
X0180900Y0263623D01*
X0180900Y0259977D01*
X0183477Y0257400D01*
X0187123Y0257400D01*
X0189700Y0259977D01*
X0189700Y0263623D01*
X0187123Y0266200D01*
X0183477Y0266200D01*
X0181438Y0264160D02*
X0176396Y0264160D01*
X0178215Y0262562D02*
X0180900Y0262562D01*
X0180900Y0260963D02*
X0179814Y0260963D01*
X0181412Y0259365D02*
X0181513Y0259365D01*
X0183011Y0257766D02*
X0183111Y0257766D01*
X0187155Y0256168D02*
X0188400Y0256168D01*
X0188400Y0257766D02*
X0187489Y0257766D01*
X0189087Y0259365D02*
X0189142Y0259365D01*
X0189700Y0260963D02*
X0190741Y0260963D01*
X0189700Y0262562D02*
X0197657Y0262562D01*
X0197657Y0260963D02*
X0194859Y0260963D01*
X0196458Y0259365D02*
X0198312Y0259365D01*
X0198281Y0264160D02*
X0189162Y0264160D01*
X0187564Y0265759D02*
X0200279Y0265759D01*
X0202967Y0268956D02*
X0164879Y0268956D01*
X0165445Y0269522D02*
X0166100Y0271102D01*
X0166100Y0272813D01*
X0165445Y0274393D01*
X0164236Y0275603D01*
X0162655Y0276257D01*
X0160945Y0276257D01*
X0159364Y0275603D01*
X0158155Y0274393D01*
X0157500Y0272813D01*
X0157500Y0271102D01*
X0158155Y0269522D01*
X0159364Y0268312D01*
X0160945Y0267657D01*
X0162655Y0267657D01*
X0164236Y0268312D01*
X0165445Y0269522D01*
X0165873Y0270554D02*
X0201369Y0270554D01*
X0199770Y0272153D02*
X0166100Y0272153D01*
X0165711Y0273751D02*
X0198172Y0273751D01*
X0198800Y0276800D02*
X0196800Y0276800D01*
X0181800Y0291800D01*
X0161957Y0291800D01*
X0161800Y0291643D01*
X0164992Y0294532D02*
X0176979Y0294532D01*
X0178352Y0296131D02*
X0143692Y0296131D01*
X0143623Y0296200D02*
X0139977Y0296200D01*
X0137400Y0293623D01*
X0137400Y0289977D01*
X0139977Y0287400D01*
X0143623Y0287400D01*
X0146200Y0289977D01*
X0146200Y0293623D01*
X0143623Y0296200D01*
X0145290Y0294532D02*
X0158608Y0294532D01*
X0157680Y0292934D02*
X0146200Y0292934D01*
X0146200Y0291335D02*
X0157500Y0291335D01*
X0157935Y0289737D02*
X0152586Y0289737D01*
X0153700Y0288138D02*
X0159223Y0288138D01*
X0164377Y0288138D02*
X0177684Y0288138D01*
X0180128Y0286539D02*
X0153700Y0286539D01*
X0153663Y0284941D02*
X0184982Y0284941D01*
X0186581Y0283342D02*
X0152065Y0283342D01*
X0151900Y0281744D02*
X0188179Y0281744D01*
X0189778Y0280145D02*
X0151900Y0280145D01*
X0151900Y0278547D02*
X0191376Y0278547D01*
X0192975Y0276948D02*
X0151900Y0276948D01*
X0151900Y0275350D02*
X0159111Y0275350D01*
X0157889Y0273751D02*
X0151757Y0273751D01*
X0150515Y0272153D02*
X0157500Y0272153D01*
X0157727Y0270554D02*
X0151723Y0270554D01*
X0153321Y0268956D02*
X0158720Y0268956D01*
X0164489Y0275350D02*
X0194573Y0275350D01*
X0198800Y0276800D02*
X0243800Y0231800D01*
X0251800Y0231800D01*
X0261800Y0221800D01*
X0265582Y0225796D02*
X0268018Y0225796D01*
X0266840Y0224198D02*
X0266760Y0224198D01*
X0269200Y0227395D02*
X0259882Y0227395D01*
X0258284Y0228993D02*
X0269200Y0228993D01*
X0269200Y0230592D02*
X0256685Y0230592D01*
X0255087Y0232190D02*
X0267733Y0232190D01*
X0266134Y0233789D02*
X0253488Y0233789D01*
X0257937Y0236986D02*
X0242291Y0236986D01*
X0240693Y0238584D02*
X0256339Y0238584D01*
X0254740Y0240183D02*
X0239094Y0240183D01*
X0237496Y0241781D02*
X0253142Y0241781D01*
X0251543Y0243380D02*
X0235897Y0243380D01*
X0234299Y0244978D02*
X0249945Y0244978D01*
X0248346Y0246577D02*
X0232700Y0246577D01*
X0233707Y0248155D02*
X0235287Y0247500D01*
X0236998Y0247500D01*
X0238578Y0248155D01*
X0239788Y0249364D01*
X0240443Y0250945D01*
X0240443Y0252655D01*
X0239788Y0254236D01*
X0238578Y0255445D01*
X0236998Y0256100D01*
X0235287Y0256100D01*
X0233707Y0255445D01*
X0232497Y0254236D01*
X0231843Y0252655D01*
X0231843Y0250945D01*
X0232497Y0249364D01*
X0233707Y0248155D01*
X0233686Y0248175D02*
X0231102Y0248175D01*
X0232328Y0249774D02*
X0229503Y0249774D01*
X0227905Y0251372D02*
X0231843Y0251372D01*
X0231973Y0252971D02*
X0226306Y0252971D01*
X0224708Y0254569D02*
X0232831Y0254569D01*
X0237157Y0257766D02*
X0223143Y0257766D01*
X0223109Y0256168D02*
X0238755Y0256168D01*
X0239454Y0254569D02*
X0240354Y0254569D01*
X0240312Y0252971D02*
X0241952Y0252971D01*
X0240443Y0251372D02*
X0243551Y0251372D01*
X0245149Y0249774D02*
X0239957Y0249774D01*
X0238599Y0248175D02*
X0246748Y0248175D01*
X0250905Y0251372D02*
X0303736Y0251372D01*
X0303917Y0251504D02*
X0303217Y0250995D01*
X0302605Y0250383D01*
X0302096Y0249683D01*
X0301703Y0248911D01*
X0301435Y0248088D01*
X0301300Y0247233D01*
X0301300Y0246800D01*
X0306800Y0246800D01*
X0306800Y0246800D01*
X0306800Y0252300D01*
X0307233Y0252300D01*
X0308088Y0252165D01*
X0308911Y0251897D01*
X0309683Y0251504D01*
X0310383Y0250995D01*
X0310995Y0250383D01*
X0311504Y0249683D01*
X0311800Y0249101D01*
X0312137Y0249915D01*
X0313684Y0251463D01*
X0315706Y0252300D01*
X0317894Y0252300D01*
X0319915Y0251463D01*
X0321463Y0249915D01*
X0322300Y0247894D01*
X0322300Y0245706D01*
X0321463Y0243684D01*
X0319915Y0242137D01*
X0317894Y0241300D01*
X0316925Y0241300D01*
X0317300Y0240394D01*
X0317300Y0238206D01*
X0316463Y0236184D01*
X0314915Y0234637D01*
X0312894Y0233800D01*
X0310706Y0233800D01*
X0308684Y0234637D01*
X0307137Y0236184D01*
X0306300Y0238206D01*
X0306300Y0240394D01*
X0306675Y0241300D01*
X0306367Y0241300D01*
X0305512Y0241435D01*
X0304689Y0241703D01*
X0303917Y0242096D01*
X0303217Y0242605D01*
X0302605Y0243217D01*
X0302096Y0243917D01*
X0301703Y0244689D01*
X0301435Y0245512D01*
X0301300Y0246367D01*
X0301300Y0246800D01*
X0306800Y0246800D01*
X0306800Y0246800D01*
X0306800Y0252300D01*
X0306367Y0252300D01*
X0305512Y0252165D01*
X0304689Y0251897D01*
X0303917Y0251504D01*
X0302162Y0249774D02*
X0289750Y0249774D01*
X0290288Y0249236D02*
X0289078Y0250445D01*
X0287498Y0251100D01*
X0285787Y0251100D01*
X0284207Y0250445D01*
X0282997Y0249236D01*
X0282343Y0247655D01*
X0282343Y0245945D01*
X0282997Y0244364D01*
X0284207Y0243155D01*
X0285787Y0242500D01*
X0287498Y0242500D01*
X0289078Y0243155D01*
X0290288Y0244364D01*
X0290943Y0245945D01*
X0290943Y0247655D01*
X0290288Y0249236D01*
X0290727Y0248175D02*
X0301464Y0248175D01*
X0301300Y0246577D02*
X0290943Y0246577D01*
X0290542Y0244978D02*
X0301609Y0244978D01*
X0302487Y0243380D02*
X0289303Y0243380D01*
X0283982Y0243380D02*
X0269618Y0243380D01*
X0269557Y0241781D02*
X0304535Y0241781D01*
X0306300Y0240183D02*
X0269557Y0240183D01*
X0269557Y0238584D02*
X0306300Y0238584D01*
X0306805Y0236986D02*
X0270291Y0236986D01*
X0271890Y0235387D02*
X0307935Y0235387D01*
X0315665Y0235387D02*
X0333076Y0235387D01*
X0332819Y0236008D02*
X0333425Y0234545D01*
X0334545Y0233425D01*
X0336008Y0232819D01*
X0337592Y0232819D01*
X0339055Y0233425D01*
X0340175Y0234545D01*
X0340781Y0236008D01*
X0340781Y0237592D01*
X0340175Y0239055D01*
X0339055Y0240175D01*
X0337592Y0240781D01*
X0336008Y0240781D01*
X0334545Y0240175D01*
X0333425Y0239055D01*
X0332819Y0237592D01*
X0332819Y0236008D01*
X0332819Y0236986D02*
X0316795Y0236986D01*
X0317300Y0238584D02*
X0333230Y0238584D01*
X0334563Y0240183D02*
X0317300Y0240183D01*
X0319056Y0241781D02*
X0392000Y0241781D01*
X0392000Y0240183D02*
X0389640Y0240183D01*
X0388623Y0241200D02*
X0384977Y0241200D01*
X0382400Y0238623D01*
X0382400Y0234977D01*
X0384977Y0232400D01*
X0388623Y0232400D01*
X0391200Y0234977D01*
X0391200Y0238623D01*
X0388623Y0241200D01*
X0391200Y0238584D02*
X0392000Y0238584D01*
X0392000Y0236986D02*
X0391200Y0236986D01*
X0391200Y0235387D02*
X0392000Y0235387D01*
X0392000Y0233789D02*
X0390011Y0233789D01*
X0392000Y0232190D02*
X0274400Y0232190D01*
X0274400Y0230592D02*
X0345551Y0230592D01*
X0346008Y0230781D02*
X0344545Y0230175D01*
X0343425Y0229055D01*
X0342819Y0227592D01*
X0342819Y0226008D01*
X0343425Y0224545D01*
X0344545Y0223425D01*
X0346008Y0222819D01*
X0347592Y0222819D01*
X0349055Y0223425D01*
X0350175Y0224545D01*
X0350781Y0226008D01*
X0350781Y0227592D01*
X0350175Y0229055D01*
X0349055Y0230175D01*
X0347592Y0230781D01*
X0346008Y0230781D01*
X0348049Y0230592D02*
X0374369Y0230592D01*
X0374977Y0231200D02*
X0372400Y0228623D01*
X0372400Y0224977D01*
X0374977Y0222400D01*
X0378623Y0222400D01*
X0381200Y0224977D01*
X0381200Y0228623D01*
X0378623Y0231200D01*
X0374977Y0231200D01*
X0372771Y0228993D02*
X0350201Y0228993D01*
X0350781Y0227395D02*
X0372400Y0227395D01*
X0372400Y0225796D02*
X0350693Y0225796D01*
X0349828Y0224198D02*
X0373180Y0224198D01*
X0374778Y0222599D02*
X0317300Y0222599D01*
X0317300Y0221001D02*
X0392000Y0221001D01*
X0392000Y0222599D02*
X0378822Y0222599D01*
X0380420Y0224198D02*
X0392000Y0224198D01*
X0392000Y0225796D02*
X0381200Y0225796D01*
X0381200Y0227395D02*
X0392000Y0227395D01*
X0392000Y0228993D02*
X0380829Y0228993D01*
X0379231Y0230592D02*
X0392000Y0230592D01*
X0383589Y0233789D02*
X0370011Y0233789D01*
X0371200Y0234977D02*
X0368623Y0232400D01*
X0364977Y0232400D01*
X0362400Y0234977D01*
X0362400Y0238623D01*
X0364977Y0241200D01*
X0368623Y0241200D01*
X0371200Y0238623D01*
X0371200Y0234977D01*
X0371200Y0235387D02*
X0382400Y0235387D01*
X0382400Y0236986D02*
X0371200Y0236986D01*
X0371200Y0238584D02*
X0382400Y0238584D01*
X0383960Y0240183D02*
X0369640Y0240183D01*
X0363960Y0240183D02*
X0358903Y0240183D01*
X0358686Y0240328D02*
X0357961Y0240628D01*
X0357192Y0240781D01*
X0356800Y0240781D01*
X0356800Y0236800D01*
X0360781Y0236800D01*
X0360781Y0237192D01*
X0360628Y0237961D01*
X0360328Y0238686D01*
X0359892Y0239338D01*
X0359338Y0239892D01*
X0358686Y0240328D01*
X0356800Y0240183D02*
X0356800Y0240183D01*
X0356800Y0240781D02*
X0356408Y0240781D01*
X0355639Y0240628D01*
X0354914Y0240328D01*
X0354262Y0239892D01*
X0353708Y0239338D01*
X0353272Y0238686D01*
X0352972Y0237961D01*
X0352819Y0237192D01*
X0352819Y0236800D01*
X0356800Y0236800D01*
X0356800Y0236800D01*
X0356800Y0236800D01*
X0360781Y0236800D01*
X0360781Y0236408D01*
X0360628Y0235639D01*
X0360328Y0234914D01*
X0359892Y0234262D01*
X0359338Y0233708D01*
X0358686Y0233272D01*
X0357961Y0232972D01*
X0357192Y0232819D01*
X0356800Y0232819D01*
X0356800Y0236800D01*
X0356800Y0236800D01*
X0356800Y0236800D01*
X0356800Y0240781D01*
X0354697Y0240183D02*
X0339037Y0240183D01*
X0340370Y0238584D02*
X0353230Y0238584D01*
X0352819Y0236986D02*
X0340781Y0236986D01*
X0340524Y0235387D02*
X0353076Y0235387D01*
X0352972Y0235639D02*
X0353272Y0234914D01*
X0353708Y0234262D01*
X0354262Y0233708D01*
X0354914Y0233272D01*
X0355639Y0232972D01*
X0356408Y0232819D01*
X0356800Y0232819D01*
X0356800Y0236800D01*
X0352819Y0236800D01*
X0352819Y0236408D01*
X0352972Y0235639D01*
X0354181Y0233789D02*
X0339419Y0233789D01*
X0334181Y0233789D02*
X0273488Y0233789D01*
X0271800Y0231800D02*
X0266800Y0236800D01*
X0261800Y0236800D01*
X0226800Y0271800D01*
X0226800Y0291800D01*
X0230916Y0288138D02*
X0232684Y0288138D01*
X0235128Y0286539D02*
X0229400Y0286539D01*
X0229400Y0284941D02*
X0343526Y0284941D01*
X0343527Y0284940D02*
X0343937Y0284136D01*
X0344467Y0283405D01*
X0345106Y0282767D01*
X0345836Y0282236D01*
X0346641Y0281826D01*
X0347500Y0281547D01*
X0348392Y0281406D01*
X0352596Y0281406D01*
X0352596Y0286958D01*
X0352965Y0286958D01*
X0352965Y0287327D01*
X0362454Y0287327D01*
X0362454Y0287594D01*
X0362313Y0288486D01*
X0362034Y0289345D01*
X0361624Y0290149D01*
X0361093Y0290880D01*
X0360455Y0291518D01*
X0359724Y0292049D01*
X0358920Y0292459D01*
X0358061Y0292738D01*
X0357169Y0292880D01*
X0352965Y0292880D01*
X0352965Y0287327D01*
X0352596Y0287327D01*
X0352596Y0292880D01*
X0348392Y0292880D01*
X0347500Y0292738D01*
X0346641Y0292459D01*
X0345836Y0292049D01*
X0345106Y0291518D01*
X0344467Y0290880D01*
X0343937Y0290149D01*
X0343527Y0289345D01*
X0343248Y0288486D01*
X0343106Y0287594D01*
X0343106Y0287327D01*
X0352596Y0287327D01*
X0352596Y0286958D01*
X0343106Y0286958D01*
X0343106Y0286691D01*
X0343248Y0285799D01*
X0343527Y0284940D01*
X0343130Y0286539D02*
X0251397Y0286539D01*
X0252300Y0288138D02*
X0343192Y0288138D01*
X0343726Y0289737D02*
X0304883Y0289737D01*
X0306165Y0290268D02*
X0308332Y0292435D01*
X0309505Y0295267D01*
X0309505Y0298333D01*
X0308332Y0301165D01*
X0306165Y0303332D01*
X0303333Y0304505D01*
X0300267Y0304505D01*
X0297435Y0303332D01*
X0295268Y0301165D01*
X0294094Y0298333D01*
X0294094Y0295267D01*
X0295268Y0292435D01*
X0297435Y0290268D01*
X0300267Y0289094D01*
X0303333Y0289094D01*
X0306165Y0290268D01*
X0307232Y0291335D02*
X0344922Y0291335D01*
X0352596Y0291335D02*
X0352965Y0291335D01*
X0352965Y0289737D02*
X0352596Y0289737D01*
X0352596Y0288138D02*
X0352965Y0288138D01*
X0352965Y0286958D02*
X0362454Y0286958D01*
X0362454Y0286691D01*
X0362313Y0285799D01*
X0362034Y0284940D01*
X0361624Y0284136D01*
X0361093Y0283405D01*
X0360455Y0282767D01*
X0359724Y0282236D01*
X0358920Y0281826D01*
X0358061Y0281547D01*
X0357169Y0281406D01*
X0352965Y0281406D01*
X0352965Y0286958D01*
X0352965Y0286539D02*
X0352596Y0286539D01*
X0352596Y0284941D02*
X0352965Y0284941D01*
X0352965Y0283342D02*
X0352596Y0283342D01*
X0352596Y0281744D02*
X0352965Y0281744D01*
X0358668Y0281744D02*
X0392000Y0281744D01*
X0392000Y0283342D02*
X0361031Y0283342D01*
X0362034Y0284941D02*
X0392000Y0284941D01*
X0392000Y0286539D02*
X0362430Y0286539D01*
X0362368Y0288138D02*
X0392000Y0288138D01*
X0392000Y0289737D02*
X0361834Y0289737D01*
X0360638Y0291335D02*
X0392000Y0291335D01*
X0392000Y0292934D02*
X0308539Y0292934D01*
X0309201Y0294532D02*
X0392000Y0294532D01*
X0392000Y0296131D02*
X0389865Y0296131D01*
X0383735Y0296131D02*
X0309505Y0296131D01*
X0309505Y0297729D02*
X0380313Y0297729D01*
X0378576Y0299328D02*
X0309093Y0299328D01*
X0308431Y0300926D02*
X0377375Y0300926D01*
X0376455Y0302525D02*
X0306973Y0302525D01*
X0304256Y0304123D02*
X0376027Y0304123D01*
X0375701Y0305722D02*
X0027899Y0305722D01*
X0027899Y0307320D02*
X0375701Y0307320D01*
X0375877Y0308919D02*
X0027723Y0308919D01*
X0027295Y0310517D02*
X0376305Y0310517D01*
X0346893Y0281744D02*
X0229400Y0281744D01*
X0229400Y0283342D02*
X0344530Y0283342D01*
X0342110Y0277131D02*
X0339828Y0277131D01*
X0337720Y0276258D01*
X0336106Y0274644D01*
X0335232Y0272536D01*
X0335232Y0262379D01*
X0336106Y0260271D01*
X0337720Y0258657D01*
X0339828Y0257783D01*
X0342110Y0257783D01*
X0344219Y0258657D01*
X0345833Y0260271D01*
X0346706Y0262379D01*
X0346706Y0272536D01*
X0345833Y0274644D01*
X0344219Y0276258D01*
X0342110Y0277131D01*
X0342552Y0276948D02*
X0364300Y0276948D01*
X0364429Y0276990D02*
X0363570Y0276711D01*
X0362766Y0276301D01*
X0362035Y0275770D01*
X0361396Y0275132D01*
X0360866Y0274401D01*
X0360456Y0273597D01*
X0360177Y0272738D01*
X0360035Y0271846D01*
X0360035Y0267642D01*
X0365588Y0267642D01*
X0365588Y0277131D01*
X0365321Y0277131D01*
X0364429Y0276990D01*
X0365588Y0276948D02*
X0365957Y0276948D01*
X0365957Y0277131D02*
X0365957Y0267642D01*
X0371509Y0267642D01*
X0371509Y0271846D01*
X0371368Y0272738D01*
X0371089Y0273597D01*
X0370679Y0274401D01*
X0370148Y0275132D01*
X0369510Y0275770D01*
X0368779Y0276301D01*
X0367975Y0276711D01*
X0367116Y0276990D01*
X0366224Y0277131D01*
X0365957Y0277131D01*
X0367245Y0276948D02*
X0392000Y0276948D01*
X0392000Y0275350D02*
X0369930Y0275350D01*
X0371010Y0273751D02*
X0392000Y0273751D01*
X0392000Y0272153D02*
X0371461Y0272153D01*
X0371509Y0270554D02*
X0392000Y0270554D01*
X0392000Y0268956D02*
X0371509Y0268956D01*
X0371509Y0267273D02*
X0365957Y0267273D01*
X0365957Y0267642D01*
X0365588Y0267642D01*
X0365588Y0267273D01*
X0365957Y0267273D01*
X0365957Y0257783D01*
X0366224Y0257783D01*
X0367116Y0257925D01*
X0367975Y0258204D01*
X0368779Y0258614D01*
X0369510Y0259145D01*
X0370148Y0259783D01*
X0370679Y0260514D01*
X0371089Y0261318D01*
X0371368Y0262177D01*
X0371509Y0263069D01*
X0371509Y0267273D01*
X0371509Y0265759D02*
X0392000Y0265759D01*
X0392000Y0267357D02*
X0365957Y0267357D01*
X0365588Y0267357D02*
X0346706Y0267357D01*
X0346706Y0265759D02*
X0360035Y0265759D01*
X0360035Y0267273D02*
X0360035Y0263069D01*
X0360177Y0262177D01*
X0360456Y0261318D01*
X0360866Y0260514D01*
X0361396Y0259783D01*
X0362035Y0259145D01*
X0362766Y0258614D01*
X0363570Y0258204D01*
X0364429Y0257925D01*
X0365321Y0257783D01*
X0365588Y0257783D01*
X0365588Y0267273D01*
X0360035Y0267273D01*
X0360035Y0268956D02*
X0346706Y0268956D01*
X0346706Y0270554D02*
X0360035Y0270554D01*
X0360084Y0272153D02*
X0346706Y0272153D01*
X0346203Y0273751D02*
X0360535Y0273751D01*
X0361615Y0275350D02*
X0345127Y0275350D01*
X0339386Y0276948D02*
X0259524Y0276948D01*
X0259289Y0277119D02*
X0258581Y0277480D01*
X0257825Y0277726D01*
X0257040Y0277850D01*
X0256643Y0277850D01*
X0256643Y0272800D01*
X0261693Y0272800D01*
X0261693Y0273197D01*
X0261568Y0273983D01*
X0261323Y0274739D01*
X0260962Y0275447D01*
X0260494Y0276090D01*
X0259932Y0276652D01*
X0259289Y0277119D01*
X0261011Y0275350D02*
X0336811Y0275350D01*
X0335736Y0273751D02*
X0261605Y0273751D01*
X0261693Y0272800D02*
X0256643Y0272800D01*
X0256643Y0272800D01*
X0256643Y0267750D01*
X0257040Y0267750D01*
X0257825Y0267874D01*
X0258581Y0268120D01*
X0259289Y0268481D01*
X0259932Y0268948D01*
X0260494Y0269510D01*
X0260962Y0270153D01*
X0261323Y0270861D01*
X0261568Y0271617D01*
X0261693Y0272403D01*
X0261693Y0272800D01*
X0261653Y0272153D02*
X0335232Y0272153D01*
X0335232Y0270554D02*
X0261166Y0270554D01*
X0259940Y0268956D02*
X0335232Y0268956D01*
X0335232Y0267357D02*
X0234920Y0267357D01*
X0235953Y0267750D02*
X0237962Y0267750D01*
X0239818Y0268519D01*
X0241239Y0269939D01*
X0242007Y0271795D01*
X0242007Y0273805D01*
X0241239Y0275661D01*
X0239818Y0277081D01*
X0237962Y0277850D01*
X0235953Y0277850D01*
X0234097Y0277081D01*
X0232676Y0275661D01*
X0231907Y0273805D01*
X0231907Y0271795D01*
X0232676Y0269939D01*
X0234097Y0268519D01*
X0235953Y0267750D01*
X0236518Y0265759D02*
X0263775Y0265759D01*
X0264097Y0266081D02*
X0262676Y0264661D01*
X0261907Y0262805D01*
X0261907Y0260795D01*
X0262676Y0258939D01*
X0264097Y0257519D01*
X0265953Y0256750D01*
X0267962Y0256750D01*
X0269818Y0257519D01*
X0271239Y0258939D01*
X0272007Y0260795D01*
X0272007Y0262805D01*
X0271239Y0264661D01*
X0269818Y0266081D01*
X0267962Y0266850D01*
X0265953Y0266850D01*
X0264097Y0266081D01*
X0262469Y0264160D02*
X0238117Y0264160D01*
X0239715Y0262562D02*
X0261907Y0262562D01*
X0261907Y0260963D02*
X0241314Y0260963D01*
X0242912Y0259365D02*
X0262500Y0259365D01*
X0263849Y0257766D02*
X0244511Y0257766D01*
X0246109Y0256168D02*
X0392000Y0256168D01*
X0392000Y0257766D02*
X0289682Y0257766D01*
X0289932Y0257948D02*
X0290494Y0258510D01*
X0290962Y0259153D01*
X0291323Y0259861D01*
X0291568Y0260617D01*
X0291693Y0261403D01*
X0291693Y0261800D01*
X0291693Y0262197D01*
X0291568Y0262983D01*
X0291323Y0263739D01*
X0290962Y0264447D01*
X0290494Y0265090D01*
X0289932Y0265652D01*
X0289289Y0266119D01*
X0288581Y0266480D01*
X0287825Y0266726D01*
X0287040Y0266850D01*
X0286643Y0266850D01*
X0286643Y0261800D01*
X0291693Y0261800D01*
X0286643Y0261800D01*
X0286643Y0261800D01*
X0286643Y0256750D01*
X0287040Y0256750D01*
X0287825Y0256874D01*
X0288581Y0257120D01*
X0289289Y0257481D01*
X0289932Y0257948D01*
X0291069Y0259365D02*
X0337012Y0259365D01*
X0335819Y0260963D02*
X0291623Y0260963D01*
X0291635Y0262562D02*
X0335232Y0262562D01*
X0335232Y0264160D02*
X0291108Y0264160D01*
X0289785Y0265759D02*
X0335232Y0265759D01*
X0346706Y0264160D02*
X0360035Y0264160D01*
X0360116Y0262562D02*
X0346706Y0262562D01*
X0346120Y0260963D02*
X0360637Y0260963D01*
X0361815Y0259365D02*
X0344927Y0259365D01*
X0365588Y0259365D02*
X0365957Y0259365D01*
X0365957Y0260963D02*
X0365588Y0260963D01*
X0365588Y0262562D02*
X0365957Y0262562D01*
X0365957Y0264160D02*
X0365588Y0264160D01*
X0365588Y0265759D02*
X0365957Y0265759D01*
X0365957Y0268956D02*
X0365588Y0268956D01*
X0365588Y0270554D02*
X0365957Y0270554D01*
X0365957Y0272153D02*
X0365588Y0272153D01*
X0365588Y0273751D02*
X0365957Y0273751D01*
X0365957Y0275350D02*
X0365588Y0275350D01*
X0371509Y0264160D02*
X0392000Y0264160D01*
X0392000Y0262562D02*
X0371429Y0262562D01*
X0370908Y0260963D02*
X0392000Y0260963D01*
X0392000Y0259365D02*
X0369730Y0259365D01*
X0392000Y0254569D02*
X0247708Y0254569D01*
X0249306Y0252971D02*
X0392000Y0252971D01*
X0392000Y0251372D02*
X0320006Y0251372D01*
X0321521Y0249774D02*
X0392000Y0249774D01*
X0392000Y0248175D02*
X0322184Y0248175D01*
X0322300Y0246577D02*
X0392000Y0246577D01*
X0392000Y0244978D02*
X0321999Y0244978D01*
X0321158Y0243380D02*
X0392000Y0243380D01*
X0363589Y0233789D02*
X0359419Y0233789D01*
X0360524Y0235387D02*
X0362400Y0235387D01*
X0362400Y0236986D02*
X0360781Y0236986D01*
X0360370Y0238584D02*
X0362400Y0238584D01*
X0356800Y0238584D02*
X0356800Y0238584D01*
X0356800Y0236986D02*
X0356800Y0236986D01*
X0356800Y0235387D02*
X0356800Y0235387D01*
X0356800Y0233789D02*
X0356800Y0233789D01*
X0343399Y0228993D02*
X0274400Y0228993D01*
X0274400Y0227395D02*
X0342819Y0227395D01*
X0342907Y0225796D02*
X0315582Y0225796D01*
X0316760Y0224198D02*
X0343772Y0224198D01*
X0353683Y0214606D02*
X0248283Y0214606D01*
X0246685Y0213008D02*
X0352804Y0213008D01*
X0352657Y0211409D02*
X0245086Y0211409D01*
X0243488Y0209811D02*
X0353127Y0209811D01*
X0361000Y0187432D02*
X0362600Y0187432D01*
X0362600Y0185833D02*
X0361000Y0185833D01*
X0361000Y0184235D02*
X0362600Y0184235D01*
X0392000Y0216205D02*
X0249882Y0216205D01*
X0251800Y0221800D02*
X0241800Y0211800D01*
X0201800Y0211800D01*
X0190521Y0224198D02*
X0187420Y0224198D01*
X0189019Y0225796D02*
X0192119Y0225796D01*
X0206685Y0230592D02*
X0208585Y0230592D01*
X0208284Y0228993D02*
X0250930Y0228993D01*
X0252528Y0227395D02*
X0209882Y0227395D01*
X0215330Y0230592D02*
X0228270Y0230592D01*
X0227997Y0230864D02*
X0229207Y0229655D01*
X0230787Y0229000D01*
X0232498Y0229000D01*
X0234078Y0229655D01*
X0235288Y0230864D01*
X0235943Y0232445D01*
X0235943Y0234155D01*
X0235288Y0235736D01*
X0234078Y0236945D01*
X0232498Y0237600D01*
X0230787Y0237600D01*
X0229207Y0236945D01*
X0227997Y0235736D01*
X0227343Y0234155D01*
X0227343Y0232445D01*
X0227997Y0230864D01*
X0227448Y0232190D02*
X0216152Y0232190D01*
X0216257Y0233789D02*
X0227343Y0233789D01*
X0227853Y0235387D02*
X0215747Y0235387D01*
X0214296Y0236986D02*
X0229304Y0236986D01*
X0233981Y0236986D02*
X0234937Y0236986D01*
X0235432Y0235387D02*
X0236536Y0235387D01*
X0235943Y0233789D02*
X0238134Y0233789D01*
X0239733Y0232190D02*
X0235837Y0232190D01*
X0235015Y0230592D02*
X0241331Y0230592D01*
X0243890Y0235387D02*
X0259536Y0235387D01*
X0262094Y0240183D02*
X0264357Y0240183D01*
X0264357Y0241781D02*
X0260496Y0241781D01*
X0258897Y0243380D02*
X0264297Y0243380D01*
X0263058Y0244978D02*
X0257299Y0244978D01*
X0255700Y0246577D02*
X0262657Y0246577D01*
X0262873Y0248175D02*
X0254102Y0248175D01*
X0252503Y0249774D02*
X0263850Y0249774D01*
X0266957Y0246800D02*
X0266957Y0236957D01*
X0266800Y0236800D01*
X0271800Y0231800D02*
X0271800Y0221800D01*
X0275582Y0225796D02*
X0278018Y0225796D01*
X0276840Y0224198D02*
X0276760Y0224198D01*
X0276760Y0219402D02*
X0276840Y0219402D01*
X0278018Y0217803D02*
X0275582Y0217803D01*
X0268018Y0217803D02*
X0265582Y0217803D01*
X0266760Y0219402D02*
X0266840Y0219402D01*
X0258018Y0217803D02*
X0255582Y0217803D01*
X0256760Y0219402D02*
X0256840Y0219402D01*
X0248018Y0225796D02*
X0245582Y0225796D01*
X0246760Y0224198D02*
X0246840Y0224198D01*
X0238018Y0225796D02*
X0235582Y0225796D01*
X0236760Y0224198D02*
X0236840Y0224198D01*
X0228018Y0225796D02*
X0225582Y0225796D01*
X0226760Y0224198D02*
X0226840Y0224198D01*
X0221642Y0240183D02*
X0221643Y0240183D01*
X0221642Y0241781D02*
X0221643Y0241781D01*
X0221642Y0243380D02*
X0221643Y0243380D01*
X0221642Y0244978D02*
X0221643Y0244978D01*
X0221642Y0246577D02*
X0221643Y0246577D01*
X0222149Y0249774D02*
X0220272Y0249774D01*
X0214001Y0248175D02*
X0187898Y0248175D01*
X0185300Y0251800D02*
X0175300Y0261800D01*
X0156800Y0261800D01*
X0146643Y0271957D01*
X0149300Y0274615D01*
X0149300Y0286800D01*
X0146014Y0289737D02*
X0145959Y0289737D01*
X0144900Y0288138D02*
X0144361Y0288138D01*
X0144900Y0286539D02*
X0118700Y0286539D01*
X0118663Y0284941D02*
X0138718Y0284941D01*
X0139977Y0286200D02*
X0137400Y0283623D01*
X0137400Y0279977D01*
X0139977Y0277400D01*
X0143623Y0277400D01*
X0146200Y0279977D01*
X0146200Y0283623D01*
X0143623Y0286200D01*
X0139977Y0286200D01*
X0139239Y0288138D02*
X0129377Y0288138D01*
X0129236Y0287997D02*
X0130445Y0289207D01*
X0131100Y0290787D01*
X0131100Y0292498D01*
X0130445Y0294078D01*
X0129236Y0295288D01*
X0127655Y0295943D01*
X0125945Y0295943D01*
X0124364Y0295288D01*
X0123155Y0294078D01*
X0122500Y0292498D01*
X0122500Y0290787D01*
X0123155Y0289207D01*
X0124364Y0287997D01*
X0125945Y0287343D01*
X0127655Y0287343D01*
X0129236Y0287997D01*
X0130665Y0289737D02*
X0137641Y0289737D01*
X0137400Y0291335D02*
X0131100Y0291335D01*
X0130920Y0292934D02*
X0137400Y0292934D01*
X0138310Y0294532D02*
X0129992Y0294532D01*
X0123608Y0294532D02*
X0110290Y0294532D01*
X0111200Y0293623D02*
X0108623Y0296200D01*
X0104977Y0296200D01*
X0102400Y0293623D01*
X0102400Y0289977D01*
X0104977Y0287400D01*
X0108623Y0287400D01*
X0111200Y0289977D01*
X0111200Y0293623D01*
X0111200Y0292934D02*
X0122680Y0292934D01*
X0122500Y0291335D02*
X0111200Y0291335D01*
X0111014Y0289737D02*
X0110959Y0289737D01*
X0109900Y0288138D02*
X0109361Y0288138D01*
X0109900Y0286539D02*
X0059068Y0286539D01*
X0059068Y0287505D02*
X0058946Y0287963D01*
X0058709Y0288374D01*
X0058374Y0288709D01*
X0057963Y0288946D01*
X0057505Y0289068D01*
X0054484Y0289068D01*
X0054484Y0284484D01*
X0059068Y0284484D01*
X0059068Y0287505D01*
X0058845Y0288138D02*
X0089223Y0288138D01*
X0089364Y0287997D02*
X0090945Y0287343D01*
X0092655Y0287343D01*
X0094236Y0287997D01*
X0095445Y0289207D01*
X0096100Y0290787D01*
X0096100Y0292498D01*
X0095445Y0294078D01*
X0094236Y0295288D01*
X0092655Y0295943D01*
X0090945Y0295943D01*
X0089364Y0295288D01*
X0088155Y0294078D01*
X0087500Y0292498D01*
X0087500Y0290787D01*
X0088155Y0289207D01*
X0089364Y0287997D01*
X0087935Y0289737D02*
X0058219Y0289737D01*
X0058014Y0289531D02*
X0059068Y0290586D01*
X0059068Y0298014D01*
X0058014Y0299068D01*
X0050586Y0299068D01*
X0049531Y0298014D01*
X0049531Y0290586D01*
X0050586Y0289531D01*
X0058014Y0289531D01*
X0059068Y0291335D02*
X0087500Y0291335D01*
X0087680Y0292934D02*
X0059068Y0292934D01*
X0059068Y0294532D02*
X0088608Y0294532D01*
X0094992Y0294532D02*
X0103310Y0294532D01*
X0102400Y0292934D02*
X0095920Y0292934D01*
X0096100Y0291335D02*
X0102400Y0291335D01*
X0102641Y0289737D02*
X0095665Y0289737D01*
X0094377Y0288138D02*
X0104239Y0288138D01*
X0104977Y0286200D02*
X0102400Y0283623D01*
X0102400Y0279977D01*
X0104977Y0277400D01*
X0108623Y0277400D01*
X0111200Y0279977D01*
X0111200Y0283623D01*
X0108623Y0286200D01*
X0104977Y0286200D01*
X0103718Y0284941D02*
X0059068Y0284941D01*
X0059068Y0284116D02*
X0054484Y0284116D01*
X0054484Y0279531D01*
X0057505Y0279531D01*
X0057963Y0279654D01*
X0058374Y0279891D01*
X0058709Y0280226D01*
X0058946Y0280637D01*
X0059068Y0281095D01*
X0059068Y0284116D01*
X0059068Y0283342D02*
X0102400Y0283342D01*
X0102400Y0281744D02*
X0059068Y0281744D01*
X0058628Y0280145D02*
X0102400Y0280145D01*
X0103831Y0278547D02*
X0058536Y0278547D01*
X0058014Y0279068D02*
X0050586Y0279068D01*
X0049531Y0278014D01*
X0049531Y0270586D01*
X0050586Y0269531D01*
X0058014Y0269531D01*
X0059068Y0270586D01*
X0059068Y0278014D01*
X0058014Y0279068D01*
X0059068Y0276948D02*
X0111700Y0276948D01*
X0111700Y0278547D02*
X0109769Y0278547D01*
X0111200Y0280145D02*
X0111700Y0280145D01*
X0111700Y0281744D02*
X0111200Y0281744D01*
X0111200Y0283342D02*
X0111535Y0283342D01*
X0109936Y0284941D02*
X0109882Y0284941D01*
X0114300Y0286800D02*
X0114300Y0274615D01*
X0111643Y0271957D01*
X0136800Y0246800D01*
X0166800Y0246800D01*
X0169102Y0248175D02*
X0182702Y0248175D01*
X0181104Y0249774D02*
X0137503Y0249774D01*
X0135905Y0251372D02*
X0180900Y0251372D01*
X0180452Y0252971D02*
X0149193Y0252971D01*
X0148623Y0252400D02*
X0144977Y0252400D01*
X0142400Y0254977D01*
X0142400Y0258623D01*
X0144977Y0261200D01*
X0148623Y0261200D01*
X0151200Y0258623D01*
X0151200Y0254977D01*
X0148623Y0252400D01*
X0150792Y0254569D02*
X0178854Y0254569D01*
X0177255Y0256168D02*
X0151200Y0256168D01*
X0151200Y0257766D02*
X0175657Y0257766D01*
X0188753Y0254569D02*
X0188808Y0254569D01*
X0189700Y0252971D02*
X0190407Y0252971D01*
X0208723Y0270554D02*
X0224502Y0270554D01*
X0224200Y0272153D02*
X0207124Y0272153D01*
X0205526Y0273751D02*
X0224200Y0273751D01*
X0224200Y0275350D02*
X0203927Y0275350D01*
X0202329Y0276948D02*
X0224200Y0276948D01*
X0224200Y0278547D02*
X0200730Y0278547D01*
X0197131Y0280145D02*
X0224200Y0280145D01*
X0224200Y0281744D02*
X0195533Y0281744D01*
X0193934Y0283342D02*
X0224200Y0283342D01*
X0224200Y0284941D02*
X0192336Y0284941D01*
X0193472Y0286539D02*
X0197203Y0286539D01*
X0196300Y0288138D02*
X0195916Y0288138D01*
X0201600Y0288138D02*
X0202000Y0288138D01*
X0202000Y0289737D02*
X0201600Y0289737D01*
X0201600Y0291335D02*
X0202000Y0291335D01*
X0202000Y0292934D02*
X0201600Y0292934D01*
X0201600Y0294532D02*
X0202000Y0294532D01*
X0202000Y0296131D02*
X0201600Y0296131D01*
X0196405Y0296131D02*
X0195248Y0296131D01*
X0188352Y0296131D02*
X0185248Y0296131D01*
X0186621Y0294532D02*
X0186979Y0294532D01*
X0201600Y0286539D02*
X0202000Y0286539D01*
X0206397Y0286539D02*
X0224200Y0286539D01*
X0222684Y0288138D02*
X0207300Y0288138D01*
X0207300Y0289737D02*
X0221702Y0289737D01*
X0221300Y0291335D02*
X0207300Y0291335D01*
X0207300Y0292934D02*
X0221316Y0292934D01*
X0221979Y0294532D02*
X0207300Y0294532D01*
X0207195Y0296131D02*
X0223352Y0296131D01*
X0230248Y0296131D02*
X0233352Y0296131D01*
X0231979Y0294532D02*
X0231621Y0294532D01*
X0240248Y0296131D02*
X0241405Y0296131D01*
X0246600Y0296131D02*
X0247000Y0296131D01*
X0247000Y0294532D02*
X0246600Y0294532D01*
X0246600Y0292934D02*
X0247000Y0292934D01*
X0247000Y0291335D02*
X0246600Y0291335D01*
X0246600Y0289737D02*
X0247000Y0289737D01*
X0247000Y0288138D02*
X0246600Y0288138D01*
X0246600Y0286539D02*
X0247000Y0286539D01*
X0242203Y0286539D02*
X0238472Y0286539D01*
X0240916Y0288138D02*
X0241300Y0288138D01*
X0252300Y0289737D02*
X0280617Y0289737D01*
X0279335Y0290268D02*
X0282167Y0289094D01*
X0285233Y0289094D01*
X0288065Y0290268D01*
X0290232Y0292435D01*
X0291405Y0295267D01*
X0291405Y0298333D01*
X0290232Y0301165D01*
X0288065Y0303332D01*
X0285233Y0304505D01*
X0282167Y0304505D01*
X0279335Y0303332D01*
X0277168Y0301165D01*
X0275994Y0298333D01*
X0275994Y0295267D01*
X0277168Y0292435D01*
X0279335Y0290268D01*
X0278268Y0291335D02*
X0252300Y0291335D01*
X0252300Y0292934D02*
X0276961Y0292934D01*
X0276299Y0294532D02*
X0252300Y0294532D01*
X0252195Y0296131D02*
X0275994Y0296131D01*
X0275994Y0297729D02*
X0059068Y0297729D01*
X0059068Y0296131D02*
X0104908Y0296131D01*
X0108692Y0296131D02*
X0139908Y0296131D01*
X0144882Y0284941D02*
X0144936Y0284941D01*
X0146200Y0283342D02*
X0146535Y0283342D01*
X0146700Y0281744D02*
X0146200Y0281744D01*
X0146200Y0280145D02*
X0146700Y0280145D01*
X0146700Y0278547D02*
X0144769Y0278547D01*
X0146700Y0276948D02*
X0116900Y0276948D01*
X0116900Y0275350D02*
X0124111Y0275350D01*
X0122889Y0273751D02*
X0116757Y0273751D01*
X0115515Y0272153D02*
X0122500Y0272153D01*
X0122727Y0270554D02*
X0116723Y0270554D01*
X0118321Y0268956D02*
X0123720Y0268956D01*
X0121518Y0265759D02*
X0149164Y0265759D01*
X0147566Y0267357D02*
X0119920Y0267357D01*
X0123117Y0264160D02*
X0150763Y0264160D01*
X0152361Y0262562D02*
X0124715Y0262562D01*
X0126314Y0260963D02*
X0144741Y0260963D01*
X0143142Y0259365D02*
X0127912Y0259365D01*
X0129511Y0257766D02*
X0142400Y0257766D01*
X0142400Y0256168D02*
X0131109Y0256168D01*
X0132708Y0254569D02*
X0142808Y0254569D01*
X0144407Y0252971D02*
X0134306Y0252971D01*
X0130149Y0249774D02*
X0095049Y0249774D01*
X0096200Y0248175D02*
X0131748Y0248175D01*
X0133346Y0246577D02*
X0096200Y0246577D01*
X0096200Y0244978D02*
X0134945Y0244978D01*
X0128551Y0251372D02*
X0061900Y0251372D01*
X0061835Y0252971D02*
X0126952Y0252971D01*
X0125354Y0254569D02*
X0120581Y0254569D01*
X0120581Y0256168D02*
X0123755Y0256168D01*
X0122157Y0257766D02*
X0120581Y0257766D01*
X0118960Y0260963D02*
X0011600Y0260963D01*
X0011600Y0259365D02*
X0061198Y0259365D01*
X0061800Y0256800D02*
X0056800Y0251800D01*
X0060388Y0248175D02*
X0087400Y0248175D01*
X0087400Y0246577D02*
X0011600Y0246577D01*
X0011600Y0248175D02*
X0013212Y0248175D01*
X0013478Y0247910D02*
X0014127Y0247438D01*
X0014842Y0247074D01*
X0015606Y0246826D01*
X0016399Y0246700D01*
X0016500Y0246700D01*
X0016500Y0251500D01*
X0017100Y0251500D01*
X0017100Y0252100D01*
X0021900Y0252100D01*
X0021900Y0252201D01*
X0021774Y0252994D01*
X0021526Y0253758D01*
X0021162Y0254473D01*
X0020690Y0255122D01*
X0020122Y0255690D01*
X0019473Y0256162D01*
X0018758Y0256526D01*
X0017994Y0256774D01*
X0017201Y0256900D01*
X0017100Y0256900D01*
X0017100Y0252100D01*
X0016500Y0252100D01*
X0016500Y0256900D01*
X0016399Y0256900D01*
X0015606Y0256774D01*
X0014842Y0256526D01*
X0014127Y0256162D01*
X0013478Y0255690D01*
X0012910Y0255122D01*
X0012438Y0254473D01*
X0012074Y0253758D01*
X0011826Y0252994D01*
X0011700Y0252201D01*
X0011700Y0252100D01*
X0016500Y0252100D01*
X0016500Y0251500D01*
X0011700Y0251500D01*
X0011700Y0251399D01*
X0011826Y0250606D01*
X0012074Y0249842D01*
X0012438Y0249127D01*
X0012910Y0248478D01*
X0013478Y0247910D01*
X0012109Y0249774D02*
X0011600Y0249774D01*
X0011600Y0251372D02*
X0011704Y0251372D01*
X0011600Y0252971D02*
X0011822Y0252971D01*
X0011600Y0254569D02*
X0012508Y0254569D01*
X0011600Y0256168D02*
X0014139Y0256168D01*
X0016500Y0256168D02*
X0017100Y0256168D01*
X0017100Y0254569D02*
X0016500Y0254569D01*
X0016500Y0252971D02*
X0017100Y0252971D01*
X0017100Y0251500D02*
X0021900Y0251500D01*
X0021900Y0251399D01*
X0021774Y0250606D01*
X0021526Y0249842D01*
X0021162Y0249127D01*
X0020690Y0248478D01*
X0020122Y0247910D01*
X0019473Y0247438D01*
X0018758Y0247074D01*
X0017994Y0246826D01*
X0017201Y0246700D01*
X0017100Y0246700D01*
X0017100Y0251500D01*
X0017100Y0251372D02*
X0016500Y0251372D01*
X0016500Y0249774D02*
X0017100Y0249774D01*
X0017100Y0248175D02*
X0016500Y0248175D01*
X0020388Y0248175D02*
X0053212Y0248175D01*
X0052119Y0249774D02*
X0021491Y0249774D01*
X0021896Y0251372D02*
X0051700Y0251372D01*
X0051765Y0252971D02*
X0021778Y0252971D01*
X0021092Y0254569D02*
X0052427Y0254569D01*
X0054018Y0256168D02*
X0019461Y0256168D01*
X0011600Y0257766D02*
X0059089Y0257766D01*
X0061800Y0256800D02*
X0116800Y0256800D01*
X0117361Y0262562D02*
X0011600Y0262562D01*
X0011600Y0264160D02*
X0115763Y0264160D01*
X0114164Y0265759D02*
X0011600Y0265759D01*
X0011600Y0267357D02*
X0014553Y0267357D01*
X0014311Y0267481D02*
X0015019Y0267120D01*
X0015775Y0266874D01*
X0016560Y0266750D01*
X0016957Y0266750D01*
X0016957Y0271800D01*
X0011907Y0271800D01*
X0011907Y0271403D01*
X0012032Y0270617D01*
X0012277Y0269861D01*
X0012638Y0269153D01*
X0013106Y0268510D01*
X0013668Y0267948D01*
X0014311Y0267481D01*
X0012782Y0268956D02*
X0011600Y0268956D01*
X0011600Y0270554D02*
X0012052Y0270554D01*
X0011907Y0271800D02*
X0016957Y0271800D01*
X0016957Y0271800D01*
X0016958Y0271800D01*
X0022007Y0271800D01*
X0016958Y0271800D01*
X0016958Y0271800D01*
X0016958Y0266750D01*
X0017355Y0266750D01*
X0018140Y0266874D01*
X0018896Y0267120D01*
X0019604Y0267481D01*
X0020247Y0267948D01*
X0020809Y0268510D01*
X0021277Y0269153D01*
X0021637Y0269861D01*
X0021883Y0270617D01*
X0022007Y0271403D01*
X0022007Y0271800D01*
X0022007Y0272197D01*
X0021883Y0272983D01*
X0021637Y0273739D01*
X0021277Y0274447D01*
X0020809Y0275090D01*
X0020247Y0275652D01*
X0019604Y0276119D01*
X0018896Y0276480D01*
X0018140Y0276726D01*
X0017355Y0276850D01*
X0016958Y0276850D01*
X0016958Y0271800D01*
X0016957Y0271800D01*
X0016957Y0276850D01*
X0016560Y0276850D01*
X0015775Y0276726D01*
X0015019Y0276480D01*
X0014311Y0276119D01*
X0013668Y0275652D01*
X0013106Y0275090D01*
X0012638Y0274447D01*
X0012277Y0273739D01*
X0012032Y0272983D01*
X0011907Y0272197D01*
X0011907Y0271800D01*
X0011907Y0272153D02*
X0011600Y0272153D01*
X0011600Y0273751D02*
X0012284Y0273751D01*
X0011600Y0275350D02*
X0013366Y0275350D01*
X0011600Y0276948D02*
X0049531Y0276948D01*
X0049531Y0275350D02*
X0040234Y0275350D01*
X0040924Y0274661D02*
X0039503Y0276081D01*
X0037647Y0276850D01*
X0035638Y0276850D01*
X0033782Y0276081D01*
X0032361Y0274661D01*
X0031593Y0272805D01*
X0031593Y0270795D01*
X0032361Y0268939D01*
X0033782Y0267519D01*
X0035638Y0266750D01*
X0037647Y0266750D01*
X0039503Y0267519D01*
X0040924Y0268939D01*
X0041693Y0270795D01*
X0041693Y0272805D01*
X0040924Y0274661D01*
X0041300Y0273751D02*
X0049531Y0273751D01*
X0049531Y0272153D02*
X0041693Y0272153D01*
X0041593Y0270554D02*
X0049563Y0270554D01*
X0040931Y0268956D02*
X0088720Y0268956D01*
X0087727Y0270554D02*
X0059037Y0270554D01*
X0059068Y0272153D02*
X0087500Y0272153D01*
X0087889Y0273751D02*
X0059068Y0273751D01*
X0059068Y0275350D02*
X0089111Y0275350D01*
X0091800Y0271957D02*
X0111643Y0271957D01*
X0110967Y0268956D02*
X0094879Y0268956D01*
X0094489Y0275350D02*
X0111358Y0275350D01*
X0116900Y0278547D02*
X0138831Y0278547D01*
X0137400Y0280145D02*
X0116900Y0280145D01*
X0116900Y0281744D02*
X0137400Y0281744D01*
X0137400Y0283342D02*
X0117065Y0283342D01*
X0118700Y0288138D02*
X0124223Y0288138D01*
X0122935Y0289737D02*
X0117586Y0289737D01*
X0129489Y0275350D02*
X0146358Y0275350D01*
X0146643Y0271957D02*
X0126800Y0271957D01*
X0129879Y0268956D02*
X0145967Y0268956D01*
X0148859Y0260963D02*
X0153960Y0260963D01*
X0155885Y0259365D02*
X0150458Y0259365D01*
X0112566Y0267357D02*
X0039113Y0267357D01*
X0034172Y0267357D02*
X0019362Y0267357D01*
X0021133Y0268956D02*
X0032355Y0268956D01*
X0031692Y0270554D02*
X0021863Y0270554D01*
X0022007Y0272153D02*
X0031593Y0272153D01*
X0031985Y0273751D02*
X0021631Y0273751D01*
X0020549Y0275350D02*
X0033051Y0275350D01*
X0035638Y0286750D02*
X0037647Y0286750D01*
X0039503Y0287519D01*
X0040924Y0288939D01*
X0041693Y0290795D01*
X0041693Y0292805D01*
X0040924Y0294661D01*
X0039503Y0296081D01*
X0037647Y0296850D01*
X0035638Y0296850D01*
X0033782Y0296081D01*
X0032361Y0294661D01*
X0031593Y0292805D01*
X0031593Y0290795D01*
X0032361Y0288939D01*
X0033782Y0287519D01*
X0035638Y0286750D01*
X0033163Y0288138D02*
X0020437Y0288138D01*
X0021574Y0289737D02*
X0032031Y0289737D01*
X0031593Y0291335D02*
X0021997Y0291335D01*
X0021891Y0292934D02*
X0031646Y0292934D01*
X0032308Y0294532D02*
X0021215Y0294532D01*
X0019865Y0296131D02*
X0033901Y0296131D01*
X0039384Y0296131D02*
X0049531Y0296131D01*
X0049531Y0297729D02*
X0023287Y0297729D01*
X0025024Y0299328D02*
X0276407Y0299328D01*
X0277069Y0300926D02*
X0026225Y0300926D01*
X0027145Y0302525D02*
X0278527Y0302525D01*
X0281244Y0304123D02*
X0027573Y0304123D01*
X0013735Y0296131D02*
X0011600Y0296131D01*
X0011600Y0294532D02*
X0012700Y0294532D01*
X0012024Y0292934D02*
X0011600Y0292934D01*
X0011600Y0291335D02*
X0011918Y0291335D01*
X0011600Y0289737D02*
X0012341Y0289737D01*
X0011600Y0288138D02*
X0013478Y0288138D01*
X0011600Y0286539D02*
X0049531Y0286539D01*
X0049531Y0287505D02*
X0049531Y0284484D01*
X0054116Y0284484D01*
X0054116Y0284116D01*
X0054484Y0284116D01*
X0054484Y0284484D01*
X0054116Y0284484D01*
X0054116Y0289068D01*
X0051095Y0289068D01*
X0050637Y0288946D01*
X0050226Y0288709D01*
X0049891Y0288374D01*
X0049654Y0287963D01*
X0049531Y0287505D01*
X0049755Y0288138D02*
X0040122Y0288138D01*
X0041254Y0289737D02*
X0050381Y0289737D01*
X0049531Y0291335D02*
X0041693Y0291335D01*
X0041639Y0292934D02*
X0049531Y0292934D01*
X0049531Y0294532D02*
X0040977Y0294532D01*
X0049531Y0284941D02*
X0011600Y0284941D01*
X0011600Y0283342D02*
X0049531Y0283342D01*
X0049531Y0284116D02*
X0049531Y0281095D01*
X0049654Y0280637D01*
X0049891Y0280226D01*
X0050226Y0279891D01*
X0050637Y0279654D01*
X0051095Y0279531D01*
X0054116Y0279531D01*
X0054116Y0284116D01*
X0049531Y0284116D01*
X0049531Y0281744D02*
X0011600Y0281744D01*
X0011600Y0280145D02*
X0049972Y0280145D01*
X0050064Y0278547D02*
X0011600Y0278547D01*
X0016957Y0275350D02*
X0016958Y0275350D01*
X0016957Y0273751D02*
X0016958Y0273751D01*
X0016957Y0272153D02*
X0016958Y0272153D01*
X0016957Y0270554D02*
X0016958Y0270554D01*
X0016957Y0268956D02*
X0016958Y0268956D01*
X0016957Y0267357D02*
X0016958Y0267357D01*
X0016957Y0288138D02*
X0016958Y0288138D01*
X0016957Y0289737D02*
X0016958Y0289737D01*
X0016957Y0291335D02*
X0016958Y0291335D01*
X0054116Y0288138D02*
X0054484Y0288138D01*
X0054484Y0286539D02*
X0054116Y0286539D01*
X0054116Y0284941D02*
X0054484Y0284941D01*
X0054484Y0283342D02*
X0054116Y0283342D01*
X0054116Y0281744D02*
X0054484Y0281744D01*
X0054484Y0280145D02*
X0054116Y0280145D01*
X0061481Y0249774D02*
X0088551Y0249774D01*
X0087400Y0244978D02*
X0011600Y0244978D01*
X0011600Y0243380D02*
X0088998Y0243380D01*
X0116800Y0190629D02*
X0116800Y0190629D01*
X0116800Y0189030D02*
X0116800Y0189030D01*
X0116800Y0187432D02*
X0116800Y0187432D01*
X0116800Y0185833D02*
X0116800Y0185833D01*
X0116800Y0184235D02*
X0116800Y0184235D01*
X0116800Y0182636D02*
X0116800Y0182636D01*
X0015409Y0185833D02*
X0011600Y0185833D01*
X0011600Y0187432D02*
X0012848Y0187432D01*
X0011727Y0189030D02*
X0011600Y0189030D01*
X0011600Y0168250D02*
X0012346Y0168250D01*
X0011600Y0166651D02*
X0014195Y0166651D01*
X0012684Y0233789D02*
X0011600Y0233789D01*
X0011600Y0235387D02*
X0011897Y0235387D01*
X0210321Y0268956D02*
X0225967Y0268956D01*
X0227566Y0267357D02*
X0211920Y0267357D01*
X0213518Y0265759D02*
X0219941Y0265759D01*
X0221642Y0265759D02*
X0221643Y0265759D01*
X0221642Y0264160D02*
X0221643Y0264160D01*
X0221642Y0262562D02*
X0221643Y0262562D01*
X0223344Y0265759D02*
X0229164Y0265759D01*
X0230763Y0264160D02*
X0225243Y0264160D01*
X0225875Y0262562D02*
X0232361Y0262562D01*
X0233960Y0260963D02*
X0225864Y0260963D01*
X0225188Y0259365D02*
X0235558Y0259365D01*
X0233660Y0268956D02*
X0233321Y0268956D01*
X0232422Y0270554D02*
X0231723Y0270554D01*
X0231907Y0272153D02*
X0230124Y0272153D01*
X0229400Y0273751D02*
X0231907Y0273751D01*
X0232548Y0275350D02*
X0229400Y0275350D01*
X0229400Y0276948D02*
X0233964Y0276948D01*
X0229400Y0278547D02*
X0392000Y0278547D01*
X0392000Y0280145D02*
X0229400Y0280145D01*
X0239951Y0276948D02*
X0253761Y0276948D01*
X0253996Y0277119D02*
X0253353Y0276652D01*
X0252791Y0276090D01*
X0252323Y0275447D01*
X0251962Y0274739D01*
X0251717Y0273983D01*
X0251593Y0273197D01*
X0251593Y0272800D01*
X0251593Y0272403D01*
X0251717Y0271617D01*
X0251962Y0270861D01*
X0252323Y0270153D01*
X0252791Y0269510D01*
X0253353Y0268948D01*
X0253996Y0268481D01*
X0254704Y0268120D01*
X0255460Y0267874D01*
X0256245Y0267750D01*
X0256642Y0267750D01*
X0256642Y0272800D01*
X0251593Y0272800D01*
X0256642Y0272800D01*
X0256642Y0272800D01*
X0256643Y0272800D01*
X0256642Y0272800D01*
X0256642Y0277850D01*
X0256245Y0277850D01*
X0255460Y0277726D01*
X0254704Y0277480D01*
X0253996Y0277119D01*
X0252274Y0275350D02*
X0241367Y0275350D01*
X0242007Y0273751D02*
X0251680Y0273751D01*
X0251632Y0272153D02*
X0242007Y0272153D01*
X0241493Y0270554D02*
X0252119Y0270554D01*
X0253345Y0268956D02*
X0240255Y0268956D01*
X0256642Y0268956D02*
X0256643Y0268956D01*
X0256642Y0270554D02*
X0256643Y0270554D01*
X0256642Y0272153D02*
X0256643Y0272153D01*
X0256642Y0273751D02*
X0256643Y0273751D01*
X0256642Y0275350D02*
X0256643Y0275350D01*
X0256642Y0276948D02*
X0256643Y0276948D01*
X0270140Y0265759D02*
X0283500Y0265759D01*
X0283353Y0265652D02*
X0282791Y0265090D01*
X0282323Y0264447D01*
X0281963Y0263739D01*
X0281717Y0262983D01*
X0281593Y0262197D01*
X0281593Y0261800D01*
X0281593Y0261403D01*
X0281717Y0260617D01*
X0281963Y0259861D01*
X0282323Y0259153D01*
X0282791Y0258510D01*
X0283353Y0257948D01*
X0283996Y0257481D01*
X0284704Y0257120D01*
X0285460Y0256874D01*
X0286245Y0256750D01*
X0286642Y0256750D01*
X0286642Y0261800D01*
X0281593Y0261800D01*
X0286642Y0261800D01*
X0286642Y0261800D01*
X0286643Y0261800D01*
X0286642Y0261800D01*
X0286642Y0266850D01*
X0286245Y0266850D01*
X0285460Y0266726D01*
X0284704Y0266480D01*
X0283996Y0266119D01*
X0283353Y0265652D01*
X0282177Y0264160D02*
X0271446Y0264160D01*
X0272007Y0262562D02*
X0281650Y0262562D01*
X0281662Y0260963D02*
X0272007Y0260963D01*
X0271415Y0259365D02*
X0282216Y0259365D01*
X0283603Y0257766D02*
X0270066Y0257766D01*
X0270065Y0249774D02*
X0283535Y0249774D01*
X0282558Y0248175D02*
X0271042Y0248175D01*
X0271257Y0246577D02*
X0282343Y0246577D01*
X0282743Y0244978D02*
X0270857Y0244978D01*
X0286642Y0257766D02*
X0286643Y0257766D01*
X0286642Y0259365D02*
X0286643Y0259365D01*
X0286642Y0260963D02*
X0286643Y0260963D01*
X0286642Y0262562D02*
X0286643Y0262562D01*
X0286642Y0264160D02*
X0286643Y0264160D01*
X0286642Y0265759D02*
X0286643Y0265759D01*
X0306800Y0251372D02*
X0306800Y0251372D01*
X0306800Y0249774D02*
X0306800Y0249774D01*
X0306800Y0248175D02*
X0306800Y0248175D01*
X0309864Y0251372D02*
X0313594Y0251372D01*
X0312079Y0249774D02*
X0311438Y0249774D01*
X0308018Y0225796D02*
X0305582Y0225796D01*
X0306760Y0224198D02*
X0306840Y0224198D01*
X0306760Y0219402D02*
X0306840Y0219402D01*
X0308018Y0217803D02*
X0305582Y0217803D01*
X0298018Y0217803D02*
X0295582Y0217803D01*
X0296760Y0219402D02*
X0296840Y0219402D01*
X0296760Y0224198D02*
X0296840Y0224198D01*
X0298018Y0225796D02*
X0295582Y0225796D01*
X0288018Y0225796D02*
X0285582Y0225796D01*
X0286760Y0224198D02*
X0286840Y0224198D01*
X0286760Y0219402D02*
X0286840Y0219402D01*
X0288018Y0217803D02*
X0285582Y0217803D01*
X0315582Y0217803D02*
X0392000Y0217803D01*
X0392000Y0219402D02*
X0316760Y0219402D01*
X0249140Y0166651D02*
X0244460Y0166651D01*
X0246326Y0165053D02*
X0247274Y0165053D01*
X0263949Y0147469D02*
X0267454Y0147469D01*
X0269053Y0145870D02*
X0265507Y0145870D01*
X0266169Y0144272D02*
X0269200Y0144272D01*
X0269200Y0142673D02*
X0266316Y0142673D01*
X0266045Y0141075D02*
X0269200Y0141075D01*
X0269200Y0139476D02*
X0265247Y0139476D01*
X0263248Y0137878D02*
X0269200Y0137878D01*
X0217410Y0262562D02*
X0216715Y0262562D01*
X0218042Y0264160D02*
X0215117Y0264160D01*
X0286156Y0304123D02*
X0299344Y0304123D01*
X0296627Y0302525D02*
X0288873Y0302525D01*
X0290331Y0300926D02*
X0295169Y0300926D01*
X0294507Y0299328D02*
X0290993Y0299328D01*
X0291405Y0297729D02*
X0294094Y0297729D01*
X0294094Y0296131D02*
X0291405Y0296131D01*
X0291101Y0294532D02*
X0294399Y0294532D01*
X0295061Y0292934D02*
X0290439Y0292934D01*
X0289132Y0291335D02*
X0296368Y0291335D01*
X0298717Y0289737D02*
X0286783Y0289737D01*
D22*
X0186800Y0196800D03*
X0181800Y0191800D03*
X0231800Y0181800D03*
X0256800Y0181800D03*
X0116800Y0256800D03*
M02*
