G75*
%MOIN*%
%OFA0B0*%
%FSLAX25Y25*%
%IPPOS*%
%LPD*%
%AMOC8*
5,1,8,0,0,1.08239X$1,22.5*
%
%ADD10C,0.13398*%
%ADD11C,0.07300*%
%ADD12C,0.07400*%
%ADD13C,0.08674*%
%ADD14R,0.08200X0.08200*%
%ADD15C,0.08200*%
%ADD16OC8,0.06000*%
%ADD17C,0.05162*%
%ADD18C,0.05800*%
%ADD19C,0.12611*%
%ADD20C,0.09300*%
%ADD21R,0.06737X0.06737*%
%ADD22C,0.11824*%
%ADD23R,0.04762X0.04762*%
D10*
X0016800Y0016800D03*
X0366800Y0016800D03*
X0386800Y0306800D03*
X0016800Y0306800D03*
D11*
X0016957Y0291800D03*
X0036643Y0291800D03*
X0036643Y0271800D03*
X0016957Y0271800D03*
X0116800Y0206643D03*
X0116800Y0186957D03*
X0146800Y0191643D03*
X0146800Y0171957D03*
X0176800Y0181643D03*
X0176800Y0161957D03*
X0266957Y0261800D03*
X0256643Y0272800D03*
X0236957Y0272800D03*
X0286643Y0261800D03*
D12*
X0056800Y0251800D03*
X0056800Y0236800D03*
X0016800Y0236800D03*
X0016800Y0251800D03*
D13*
X0340969Y0263520D02*
X0340969Y0271394D01*
X0348843Y0287143D02*
X0356717Y0287143D01*
X0365772Y0271394D02*
X0365772Y0263520D01*
D14*
X0246800Y0291800D03*
X0201800Y0291800D03*
X0110816Y0142824D03*
D15*
X0120816Y0142824D03*
X0130816Y0142824D03*
X0140816Y0142824D03*
X0150816Y0142824D03*
X0160816Y0142824D03*
X0170816Y0142824D03*
X0180816Y0142824D03*
X0190816Y0142824D03*
X0200816Y0142824D03*
X0210816Y0142824D03*
X0220816Y0142824D03*
X0230816Y0142824D03*
X0240816Y0142824D03*
X0250816Y0142824D03*
X0260816Y0142824D03*
X0261800Y0161800D03*
X0251800Y0161800D03*
X0241800Y0161800D03*
X0231800Y0161800D03*
X0221800Y0161800D03*
X0211800Y0161800D03*
X0201800Y0161800D03*
X0271800Y0161800D03*
X0281800Y0161800D03*
X0291800Y0161800D03*
X0301800Y0161800D03*
X0311800Y0161800D03*
X0311800Y0221800D03*
X0301800Y0221800D03*
X0291800Y0221800D03*
X0281800Y0221800D03*
X0271800Y0221800D03*
X0261800Y0221800D03*
X0251800Y0221800D03*
X0241800Y0221800D03*
X0231800Y0221800D03*
X0221800Y0221800D03*
X0211800Y0221800D03*
X0201800Y0221800D03*
X0191800Y0291800D03*
X0181800Y0291800D03*
X0226800Y0291800D03*
X0236800Y0291800D03*
X0306800Y0246800D03*
X0316800Y0246800D03*
X0311800Y0239300D03*
X0056800Y0034300D03*
X0051800Y0026800D03*
X0061800Y0026800D03*
D16*
X0091800Y0216800D03*
X0091800Y0246800D03*
X0111800Y0281800D03*
X0104300Y0286800D03*
X0111800Y0291800D03*
X0139300Y0286800D03*
X0146800Y0291800D03*
X0146800Y0281800D03*
X0146800Y0256800D03*
X0146800Y0226800D03*
X0185300Y0228300D03*
X0192800Y0233300D03*
X0185300Y0238300D03*
X0185300Y0251800D03*
X0192800Y0256800D03*
X0185300Y0261800D03*
X0366800Y0236800D03*
X0376800Y0226800D03*
X0386800Y0236800D03*
D17*
X0356800Y0236800D03*
X0346800Y0226800D03*
X0336800Y0236800D03*
D18*
X0356957Y0211800D03*
X0376643Y0211800D03*
X0286643Y0246800D03*
X0266957Y0246800D03*
X0236143Y0251800D03*
X0221643Y0242800D03*
X0216457Y0251800D03*
X0221643Y0261800D03*
X0201957Y0261800D03*
X0201957Y0242800D03*
X0211957Y0233300D03*
X0231643Y0233300D03*
X0186800Y0181643D03*
X0186800Y0161957D03*
X0156800Y0171957D03*
X0156800Y0191643D03*
X0126800Y0186957D03*
X0126800Y0206643D03*
X0101643Y0196800D03*
X0101643Y0186800D03*
X0101643Y0176800D03*
X0081957Y0176800D03*
X0081957Y0186800D03*
X0081957Y0196800D03*
X0091800Y0271957D03*
X0091800Y0291643D03*
X0126800Y0291643D03*
X0126800Y0271957D03*
X0161800Y0271957D03*
X0161800Y0291643D03*
D19*
X0283700Y0296800D03*
X0301800Y0296800D03*
X0343700Y0181800D03*
X0361800Y0181800D03*
D20*
X0066406Y0171957D03*
X0066406Y0191643D03*
X0017194Y0191643D03*
X0017194Y0171957D03*
X0017194Y0136643D03*
X0017194Y0116957D03*
X0017194Y0081643D03*
X0017194Y0061957D03*
X0066406Y0061957D03*
X0066406Y0081643D03*
X0066406Y0116957D03*
X0066406Y0136643D03*
D21*
X0054300Y0274300D03*
X0054300Y0284300D03*
X0054300Y0294300D03*
D22*
X0089162Y0142824D03*
X0089162Y0020776D03*
X0384438Y0020776D03*
X0384438Y0142824D03*
D23*
X0256800Y0181800D03*
X0231800Y0181800D03*
X0186800Y0196800D03*
X0181800Y0191800D03*
X0116800Y0256800D03*
M02*
