%
M48
M72
T01C0.02362
T02C0.02756
T03C0.03000
T04C0.03200
T05C0.03937
T06C0.04000
T07C0.04400
T08C0.04724
T09C0.07874
T10C0.11024
T11C0.12598
%
T01
X231800Y181800
X256800Y181800
X186800Y196800
X181800Y191800
X116800Y256800
X336800Y236800
X346800Y226800
X356800Y236800
T02
X286643Y261800
X266957Y261800
X256643Y272800
X236957Y272800
X146800Y191643
X146800Y171957
X176800Y181643
X176800Y161957
X116800Y186957
X116800Y206643
X36643Y271800
X16957Y271800
X16957Y291800
X36643Y291800
T03
X91800Y291643
X91800Y271957
X126800Y271957
X126800Y291643
X161800Y291643
X161800Y271957
X201957Y261800
X216457Y251800
X221643Y242800
X211957Y233300
X201957Y242800
X221643Y261800
X236143Y251800
X231643Y233300
X266957Y246800
X286643Y246800
X356957Y211800
X376643Y211800
X186800Y181643
X186800Y161957
X156800Y171957
X156800Y191643
X126800Y186957
X126800Y206643
X101643Y196800
X101643Y186800
X101643Y176800
X81957Y176800
X81957Y186800
X81957Y196800
T04
X91800Y216800
X91800Y246800
X111800Y281800
X104300Y286800
X111800Y291800
X139300Y286800
X146800Y291800
X146800Y281800
X146800Y256800
X146800Y226800
X185300Y228300
X192800Y233300
X185300Y238300
X185300Y251800
X192800Y256800
X185300Y261800
X306800Y246800
X316800Y246800
X311800Y239300
X366800Y236800
X376800Y226800
X386800Y236800
X61800Y26800
X56800Y34300
X51800Y26800
T05
X340969Y267457
X352780Y287143
X365772Y267457
X54300Y274300
X54300Y284300
X54300Y294300
T06
X181800Y291800
X191800Y291800
X201800Y291800
X226800Y291800
X236800Y291800
X246800Y291800
X241800Y221800
X231800Y221800
X221800Y221800
X211800Y221800
X201800Y221800
X251800Y221800
X261800Y221800
X271800Y221800
X281800Y221800
X291800Y221800
X301800Y221800
X311800Y221800
X311800Y161800
X301800Y161800
X291800Y161800
X281800Y161800
X271800Y161800
X261800Y161800
X251800Y161800
X241800Y161800
X231800Y161800
X221800Y161800
X211800Y161800
X201800Y161800
X200816Y142824
X190816Y142824
X180816Y142824
X170816Y142824
X160816Y142824
X150816Y142824
X140816Y142824
X130816Y142824
X120816Y142824
X110816Y142824
X210816Y142824
X220816Y142824
X230816Y142824
X240816Y142824
X250816Y142824
X260816Y142824
T07
X56800Y236800
X56800Y251800
X16800Y251800
X16800Y236800
T08
X17194Y191643
X17194Y171957
X17194Y136643
X17194Y116957
X17194Y81643
X17194Y61957
X66406Y61957
X66406Y81643
X66406Y116957
X66406Y136643
X66406Y171957
X66406Y191643
T09
X283700Y296800
X301800Y296800
X343700Y181800
X361800Y181800
T10
X384438Y142824
X384438Y20776
X89162Y20776
X89162Y142824
T11
X16800Y16800
X366800Y16800
X386800Y306800
X16800Y306800
M30
